<svg width="1920" height="400" viewBox="0 0 1920 400" fill="none" xmlns="http://www.w3.org/2000/svg">
<g clip-path="url(#clip0_325_1539)">
<rect width="1920" height="400" fill="white"/>
<path d="M2177.06 -103.992C1999.48 50.3251 1805.14 189.427 1642.24 278.696C1543.21 332.949 1454.93 369.754 1379.89 388.069C1359.12 393.143 1339.37 396.792 1320.67 399.024C1310.01 400.29 1299.7 401.096 1289.72 401.432C1286.86 392.559 1284.32 383.224 1282.15 373.438C1292.83 372.163 1303.87 370.427 1315.22 368.213C1323.76 366.566 1332.47 364.653 1341.37 362.483C1416.42 344.169 1504.7 307.363 1603.72 253.111C1766.62 163.842 1960.96 24.7488 2138.54 -129.577L2177.06 -103.992Z" fill="#F0F0F0"/>
<path d="M2254.48 -52.5735C2076.9 101.743 1882.56 240.845 1719.66 330.114C1620.64 384.376 1532.36 421.181 1457.32 439.496C1412.81 450.353 1372.94 454.693 1338.02 452.505C1328.76 451.93 1319.86 450.893 1311.32 449.397C1307.01 442.33 1303.05 434.793 1299.46 426.805C1308.72 427.389 1318.34 427.496 1328.28 427.15C1355.83 426.212 1385.96 421.757 1418.61 413.786C1493.65 395.472 1581.93 358.666 1680.95 304.405C1843.85 215.136 2038.2 76.0342 2215.77 -78.2826L2254.48 -52.5735Z" fill="#F0F0F0"/>
<path d="M2331.91 -1.15542C2154.33 153.17 1959.99 292.272 1797.09 381.541C1698.07 435.802 1609.79 472.608 1534.75 490.923C1466.54 507.563 1409.25 508.883 1363.9 494.917C1356.07 492.499 1348.59 489.63 1341.47 486.3C1335.72 481.084 1330.35 475.389 1325.32 469.243C1333.15 471.661 1341.35 473.6 1349.89 475.097C1390.75 482.253 1439.67 478.967 1496.04 465.213C1571.08 446.899 1659.36 410.093 1758.38 355.832C1921.28 266.563 2115.62 127.461 2293.2 -26.8646L2331.91 -1.15542Z" fill="#F0F0F0"/>
<path d="M2409.15 50.1488C2231.57 204.474 2037.23 343.568 1874.33 432.837C1775.31 487.098 1687.03 523.904 1611.99 542.218C1529.03 562.472 1462.23 560.036 1413.42 535.009C1408.17 532.317 1403.14 529.368 1398.3 526.162L1359.79 500.577C1364.63 503.792 1369.67 506.741 1374.9 509.424C1423.72 534.451 1490.52 536.869 1573.47 516.633C1648.52 498.318 1736.8 461.513 1835.82 407.252C1998.71 317.983 2193.06 178.88 2370.63 24.5636L2409.15 50.1488Z" fill="#F0F0F0"/>
<path d="M1147.97 357.808C1146.22 356.993 1144.51 356.17 1142.8 355.293C1137.56 352.601 1132.52 349.652 1127.68 346.437C1125.52 345.002 1123.41 343.514 1121.32 341.973C1056.85 294.257 1030.64 196.141 1043.13 49.3957C1044.89 28.77 1047.41 7.19658 1050.69 -15.3421C1067.33 -28.9184 1083 -41.0069 1097.73 -51.6165C1096.09 -36.4549 1093.9 -20.2926 1091.22 -3.08523C1090.52 1.38708 1089.84 5.83276 1089.21 10.2431C1064.04 182.936 1083.79 299.526 1147.97 357.808Z" fill="#F0F0F0"/>
<path d="M1225.3 409.146C1223.52 408.323 1221.77 407.464 1220.04 406.578C1214.78 403.895 1209.75 400.937 1204.92 397.731C1202.76 396.296 1200.63 394.808 1198.54 393.267C1194.41 390.194 1190.41 386.926 1186.6 383.446L1186.59 383.437C1180.88 378.247 1175.53 372.606 1170.53 366.495C1117.91 302.183 1104.23 186.965 1129.93 22.6236C1132.63 5.31 1134.81 -10.9586 1136.48 -26.191C1138.61 -45.6655 1139.89 -63.4838 1140.31 -79.7436C1153.73 -87.6874 1166.18 -94.0639 1177.74 -98.8727C1179.02 -85.5266 1179.47 -70.6839 1179.02 -54.2824C1178.28 -25.2169 1174.83 8.79041 1168.64 48.3327C1145.4 196.973 1154.37 305.433 1195.23 372.385C1199.53 379.408 1204.17 385.979 1209.15 392.098C1214.18 398.244 1219.56 403.939 1225.3 409.146Z" fill="#F0F0F0"/>
<path d="M1321.06 474.867L1282.35 449.158C1280.19 447.723 1278.06 446.236 1275.98 444.686C1271.84 441.63 1267.87 438.362 1264.05 434.882C1258.3 429.666 1252.91 423.971 1247.88 417.808C1242.87 411.661 1238.19 405.055 1233.9 397.979C1229.6 390.956 1225.66 383.455 1222.08 375.502C1191.55 307.806 1186.58 206.998 1207.35 74.0508C1217.06 12.0229 1220.05 -36.3755 1216.43 -73.3584C1216.04 -77.3436 1215.57 -81.196 1215.02 -84.9155C1213.76 -93.5856 1212.06 -101.538 1209.91 -108.756C1219.74 -110.51 1228.71 -110.713 1236.85 -109.385C1241.63 -102.132 1245.53 -93.3907 1248.57 -83.2151C1250.74 -75.9443 1252.47 -67.9296 1253.74 -59.1975C1259.33 -20.9305 1256.82 31.0634 1246.06 99.7599C1227.73 217.014 1229.44 309.268 1251.06 375.856C1253.93 384.73 1257.16 393.152 1260.74 401.105C1264.34 409.102 1268.29 416.63 1272.61 423.697C1276.92 430.764 1281.59 437.379 1286.6 443.526C1291.64 449.68 1297.01 455.375 1302.77 460.6C1306.6 464.072 1310.57 467.339 1314.7 470.404C1316.77 471.945 1318.9 473.432 1321.06 474.867Z" fill="#F0F0F0"/>
<path d="M1398.28 526.162L1359.77 500.577C1357.61 499.142 1355.48 497.654 1353.41 496.113C1349.27 493.04 1345.29 489.781 1341.47 486.301C1335.72 481.084 1330.35 475.39 1325.32 469.244C1320.31 463.098 1315.63 456.473 1311.32 449.397C1307.01 442.33 1303.05 434.794 1299.46 426.806C1295.85 418.809 1292.61 410.36 1289.73 401.433C1286.86 392.559 1284.32 383.225 1282.15 373.439C1268.06 309.826 1268.9 227.031 1284.78 125.478C1295.53 56.7729 1298.04 4.77897 1292.45 -33.4881C1287.81 -65.2636 1277.26 -87.3683 1260.97 -99.4214C1260.25 -99.9616 1259.51 -100.475 1258.76 -100.971L1297.28 -75.3861C1298.03 -74.899 1298.77 -74.3765 1299.49 -73.8451C1315.78 -61.792 1326.34 -39.6873 1330.98 -7.91176C1336.56 30.3641 1334.05 82.3581 1323.31 151.055C1309.88 236.941 1307.21 309.419 1315.22 368.214C1316.68 378.939 1318.5 389.203 1320.67 399.024C1322.85 408.854 1325.39 418.233 1328.28 427.151C1331.17 436.06 1334.42 444.518 1338.02 452.506C1341.62 460.503 1345.58 468.022 1349.89 475.098C1354.22 482.165 1358.87 488.771 1363.9 494.918C1368.94 501.072 1374.33 506.758 1380.08 511.965C1383.87 515.419 1387.82 518.661 1391.92 521.698C1394.01 523.239 1396.12 524.727 1398.28 526.162Z" fill="#F0F0F0"/>
<path d="M1065.2 -229.536C1062.88 -231.077 1060.44 -232.432 1057.89 -233.584C1053.38 -235.629 1048.57 -237.082 1043.42 -237.923C1001.86 -244.751 939.052 -212.001 848.135 -136.495C759.761 -63.1222 656.021 40.7947 546.197 150.814C424.125 273.098 297.882 399.554 185.454 490.815C128.926 536.699 79.8724 570.343 37.8504 591.943C25.2483 598.416 13.2748 603.819 1.91248 608.132C0.256382 595.069 -0.611508 581.147 -0.67352 566.366C12.2918 559.707 25.9212 551.887 40.2415 542.933C72.3181 522.848 107.831 496.97 146.93 465.239C259.367 373.968 385.601 247.522 507.682 125.228C617.506 15.2096 721.246 -88.7074 809.603 -162.08C911.793 -246.93 978.452 -277.775 1019.38 -259.169C1021.92 -258.009 1024.35 -256.654 1026.67 -255.113L1027.8 -254.36L1065.2 -229.536Z" fill="#F0F0F0"/>
<path d="M1142.63 -178.109C1140.3 -179.659 1137.87 -181.005 1135.32 -182.157C1130.78 -184.22 1125.91 -185.681 1120.72 -186.514C1112.58 -187.842 1103.61 -187.647 1093.78 -185.903C1083.99 -184.176 1073.34 -180.908 1061.77 -176.09C1025.72 -161.079 980.835 -130.986 925.555 -85.0766C837.189 -11.6952 733.449 92.2217 623.625 202.241C501.545 324.516 375.31 450.981 262.883 542.242C172.639 615.5 101.463 657.522 47.5034 669.221C37.6998 671.337 28.4805 672.462 19.8016 672.586C15.9846 664.66 12.7078 656.158 9.98005 647.089C9.61694 645.894 9.27174 644.698 8.93521 643.476C18.8629 641.324 29.3661 638.136 40.4628 633.911C89.7024 615.225 150.588 576.25 224.164 516.524C336.6 425.272 462.835 298.807 584.916 176.531C694.731 66.5038 798.479 -37.4044 886.845 -110.786C959.952 -171.494 1014.88 -204.563 1055.2 -211.639C1064.98 -213.357 1073.9 -213.551 1082.01 -212.223C1087.2 -211.391 1092.07 -209.929 1096.61 -207.866C1099.15 -206.723 1101.59 -205.368 1103.91 -203.827L1142.63 -178.109Z" fill="#F0F0F0"/>
<path d="M1220.05 -126.682C1217.73 -128.232 1215.3 -129.578 1212.76 -130.738C1208.2 -132.81 1203.34 -134.272 1198.14 -135.095C1190 -136.424 1181.03 -136.22 1171.19 -134.475C1161.35 -132.748 1150.65 -129.454 1139.02 -124.592C1127.47 -119.774 1115.01 -113.407 1101.6 -105.472C1088.43 -97.6783 1074.33 -88.3617 1059.25 -77.5042C1041.82 -64.9552 1023.09 -50.3515 1002.98 -33.649C914.618 39.7323 810.887 143.64 701.063 253.659C578.973 375.944 452.739 502.408 340.311 593.67C216.725 693.982 128.917 735.739 72.0522 721.224C71.2994 721.038 70.5644 720.834 69.8293 720.63C62.4257 718.505 55.3851 715.981 48.7342 713.014C43.1726 707.701 38.0804 701.882 33.4752 695.541C41.1977 697.507 49.5046 698.428 58.3696 698.295C114.871 697.534 194.895 654.582 301.592 567.952C414.029 476.699 540.263 350.235 662.344 227.959C772.168 117.922 875.908 14.0232 964.274 -59.3582C1001.86 -90.5669 1034.63 -114.469 1063.1 -131.296C1076.43 -139.187 1088.82 -145.519 1100.31 -150.301C1111.94 -155.163 1122.64 -158.457 1132.48 -160.184C1142.31 -161.938 1151.27 -162.133 1159.43 -160.813C1164.62 -159.972 1169.49 -158.519 1174.05 -156.447C1176.58 -155.296 1179.02 -153.941 1181.34 -152.4L1220.05 -126.682Z" fill="#F0F0F0"/>
<path d="M1297.28 -75.3874C1294.96 -76.9283 1292.52 -78.2833 1289.98 -79.4434C1285.46 -81.498 1280.65 -82.9504 1275.49 -83.7829C1267.35 -85.1202 1258.4 -84.9342 1248.57 -83.2161C1238.75 -81.4892 1228.05 -78.2125 1216.43 -73.3594C1204.88 -68.5594 1192.43 -62.2007 1179.02 -54.2834C1165.79 -46.4546 1151.62 -37.1026 1136.48 -26.1919C1121.67 -15.5469 1105.93 -3.40533 1089.21 10.2419C1086.24 12.6596 1083.24 15.1304 1080.21 17.6456C1068.12 27.6795 1055.77 38.2802 1043.13 49.3945C963.37 119.552 873.1 209.981 778.287 304.954C656.207 427.247 529.972 553.694 417.536 644.965C292.338 746.588 203.857 788.114 147.063 771.916C131.476 767.47 117.528 761.156 105.236 752.991L66.7207 727.406C79.0128 735.571 92.9612 741.885 108.539 746.34C165.333 762.537 253.814 721.012 379.021 619.379C491.448 528.118 617.691 401.662 739.772 279.369C849.596 169.35 953.327 65.4417 1041.69 -7.9396C1044.72 -10.4547 1047.72 -12.9256 1050.69 -15.3433C1067.33 -28.9197 1083 -41.0081 1097.73 -51.6177C1112.89 -62.5372 1127.07 -71.9069 1140.31 -79.7445C1153.73 -87.6884 1166.18 -94.0648 1177.74 -98.8737C1189.37 -103.736 1200.07 -107.03 1209.91 -108.757C1219.74 -110.511 1228.71 -110.714 1236.85 -109.386C1242.06 -108.553 1246.92 -107.092 1251.47 -105.029C1254.01 -103.868 1256.44 -102.513 1258.76 -100.973L1297.28 -75.3874Z" fill="#F0F0F0"/>
<path d="M-126.854 598.851L-165.369 573.266C-167.229 572.026 -169.062 570.742 -170.86 569.422C-194.984 551.569 -212.156 525.984 -222.101 492.942C-237.192 442.852 -236.253 374.837 -219.338 290.811C-205.656 222.876 -181.576 144.562 -147.755 58.0116C-92.3955 -83.6765 -28.5788 -201.621 -22.7958 -212.204L15.7193 -186.619C9.94512 -176.045 -53.8716 -58.1002 -109.231 83.5878C-143.052 170.138 -167.132 248.47 -180.814 316.387C-197.738 400.422 -198.668 468.428 -183.586 518.527C-175.43 545.582 -162.438 567.642 -144.735 584.549C-140.829 588.295 -136.702 591.766 -132.336 594.999C-130.547 596.327 -128.714 597.611 -126.854 598.851Z" fill="#F0F0F0"/>
<path d="M-49.4264 650.278L-88.1361 624.569C-90.0048 623.32 -91.838 622.036 -93.6269 620.708C-98.0195 617.467 -102.173 613.951 -106.105 610.178C-111.64 604.891 -116.715 599.09 -121.32 592.785C-131.416 578.987 -139.28 562.798 -144.877 544.236C-159.95 494.146 -159.02 426.14 -142.105 342.096C-128.422 274.179 -104.343 195.847 -70.5215 109.297C-15.1622 -32.3911 48.6634 -150.327 54.4287 -160.91L93.1474 -135.192C87.3733 -124.618 23.5476 -6.68194 -31.8028 135.015C-65.6241 221.565 -89.7126 299.888 -103.395 367.805C-120.31 451.849 -121.24 519.855 -106.167 569.945C-103.413 579.058 -100.127 587.604 -96.2837 595.574C-92.3251 603.802 -87.7819 611.409 -82.672 618.396L-82.6632 618.405C-78.0491 624.755 -72.9481 630.582 -67.3864 635.896C-63.4632 639.66 -59.3008 643.184 -54.9082 646.426C-53.1192 647.754 -51.295 649.03 -49.4264 650.278Z" fill="#F0F0F0"/>
<path d="M10.016 687.297C2.65663 684.046 -4.26004 680.265 -10.7072 675.979C-12.5758 674.748 -14.409 673.463 -16.1979 672.135C-20.5905 668.894 -24.744 665.378 -28.6761 661.605C-34.2377 656.291 -39.3299 650.473 -43.9439 644.123C-49.0893 637.1 -53.6502 629.44 -57.6265 621.159C-61.4347 613.224 -64.7114 604.723 -67.448 595.663C-67.7933 594.52 -68.1298 593.369 -68.4575 592.209C-82.4855 542.456 -81.2014 475.654 -64.676 393.523C-50.9934 325.606 -26.9137 247.274 6.90759 160.724C62.2668 19.036 126.092 -98.9001 131.858 -109.483L170.576 -83.7651C164.802 -73.1909 100.977 44.7452 45.6263 186.442C11.805 272.992 -12.2835 351.315 -25.9661 419.232C-38.8517 483.288 -42.465 538.019 -36.7706 582.609C-35.1765 595.132 -32.8473 606.848 -29.7831 617.759C-29.4466 618.981 -29.1012 620.177 -28.7381 621.372C-26.0105 630.441 -22.7337 638.942 -18.9079 646.878C-14.9404 655.149 -10.3795 662.81 -5.23412 669.832C-0.628995 676.173 4.46324 681.992 10.016 687.297Z" fill="#F0F0F0"/>
<path d="M105.236 752.991L66.7211 727.406C64.8524 726.175 63.0192 724.891 61.2303 723.563C56.8288 720.312 52.6665 716.788 48.7344 713.015C43.1728 707.701 38.0806 701.883 33.4754 695.542C28.33 688.519 23.7692 680.859 19.8016 672.587C15.9847 664.661 12.7079 656.159 9.98022 647.091C9.61711 645.895 9.27178 644.699 8.93525 643.477C5.85335 632.513 3.51538 620.735 1.91243 608.133C0.25634 595.07 -0.611575 581.148 -0.673551 566.367C-0.832956 530.731 3.63934 490.161 12.7522 444.951C26.426 377.025 50.5144 298.702 84.3357 212.152C139.686 70.4548 203.512 -47.4813 209.286 -58.0555L247.81 -32.4792C242.027 -21.8962 178.21 96.0488 122.851 237.737C89.0295 324.287 64.9499 402.601 51.2673 470.536C46.1042 496.174 42.4288 520.325 40.2414 542.934C38.5765 560.186 37.7795 576.534 37.8504 591.944C37.9123 606.813 38.7802 620.806 40.4628 633.913C42.0658 646.497 44.4127 658.285 47.5034 669.222C47.8311 670.382 48.1588 671.524 48.5042 672.667C51.2407 681.78 54.544 690.326 58.3698 698.296C62.3462 706.559 66.907 714.202 72.0524 721.224C76.6753 727.548 81.7587 733.375 87.3203 738.671C91.2346 742.426 95.3616 745.915 99.7453 749.148C101.543 750.467 103.376 751.751 105.236 752.991Z" fill="#F0F0F0"/>
</g>
<defs>
<clipPath id="clip0_325_1539">
<rect width="1920" height="400" fill="white"/>
</clipPath>
</defs>
</svg>
