<svg width="428" height="407" viewBox="0 0 428 407" fill="none" xmlns="http://www.w3.org/2000/svg">
<rect width="428" height="304" fill="white"/>
<path d="M664.837 81.1412C599.081 138.285 527.115 189.795 466.793 222.851C430.123 242.941 397.433 256.57 369.644 263.352C361.953 265.231 354.64 266.582 347.714 267.409C343.769 267.878 339.949 268.176 336.256 268.301C335.193 265.015 334.256 261.558 333.452 257.934C337.407 257.462 341.493 256.819 345.697 256C348.859 255.39 352.086 254.681 355.382 253.878C383.171 247.096 415.86 233.467 452.531 213.377C512.852 180.321 584.816 128.814 650.575 71.667L664.837 81.1412Z" fill="#F0F0F0"/>
<path d="M693.506 100.182C627.75 157.325 555.783 208.835 495.462 241.892C458.795 261.985 426.105 275.614 398.316 282.396C381.833 286.416 367.069 288.023 354.139 287.213C350.712 287 347.416 286.616 344.251 286.062C342.658 283.445 341.192 280.654 339.86 277.696C343.29 277.913 346.852 277.952 350.535 277.824C360.734 277.476 371.893 275.827 383.981 272.875C411.771 266.094 444.46 252.464 481.127 232.371C541.449 199.315 613.416 147.805 679.171 90.6614L693.506 100.182Z" fill="#F0F0F0"/>
<path d="M722.181 119.222C656.422 176.369 584.455 227.878 524.134 260.935C487.467 281.028 454.777 294.657 426.988 301.439C401.733 307.601 380.518 308.09 363.725 302.918C360.822 302.023 358.054 300.96 355.418 299.727C353.289 297.795 351.299 295.687 349.436 293.411C352.338 294.306 355.372 295.024 358.536 295.579C373.668 298.228 391.78 297.012 412.653 291.919C440.443 285.137 473.132 271.508 509.799 251.415C570.121 218.358 642.088 166.848 707.846 109.701L722.181 119.222Z" fill="#F0F0F0"/>
<path d="M750.781 138.22C685.022 195.367 613.058 246.873 552.737 279.93C516.07 300.023 483.38 313.652 455.591 320.434C424.872 327.934 400.136 327.032 382.06 317.764C380.118 316.767 378.252 315.675 376.462 314.488L362.2 305.014C363.993 306.204 365.859 307.296 367.798 308.29C385.874 317.558 410.61 318.453 441.329 310.959C469.118 304.178 501.807 290.548 538.475 270.455C598.796 237.399 670.763 185.889 736.518 128.745L750.781 138.22Z" fill="#F0F0F0"/>
<path d="M283.766 252.146C283.116 251.844 282.483 251.54 281.851 251.215C279.909 250.218 278.043 249.126 276.249 247.935C275.449 247.404 274.669 246.853 273.895 246.283C250.021 228.613 240.317 192.281 244.941 137.941C245.593 130.303 246.525 122.314 247.741 113.968C253.903 108.941 259.705 104.464 265.162 100.536C264.552 106.15 263.742 112.135 262.748 118.507C262.489 120.163 262.24 121.809 262.004 123.442C252.683 187.391 260 230.564 283.766 252.146Z" fill="#F0F0F0"/>
<path d="M312.398 271.157C311.739 270.852 311.093 270.534 310.45 270.206C308.506 269.212 306.643 268.117 304.852 266.93C304.052 266.399 303.265 265.848 302.491 265.277C300.96 264.139 299.481 262.929 298.067 261.64L298.064 261.637C295.952 259.715 293.968 257.626 292.118 255.363C272.632 231.548 267.569 188.883 277.082 128.027C278.082 121.616 278.892 115.592 279.509 109.951C280.299 102.74 280.772 96.1414 280.929 90.1204C285.897 87.1787 290.508 84.8175 294.788 83.0368C295.263 87.9789 295.427 93.4752 295.263 99.5486C294.988 110.312 293.709 122.905 291.417 137.547C282.811 192.589 286.133 232.752 301.265 257.544C302.855 260.145 304.574 262.578 306.42 264.844C308.283 267.12 310.273 269.229 312.398 271.157Z" fill="#F0F0F0"/>
<path d="M347.859 295.493L333.524 285.973C332.724 285.442 331.937 284.891 331.166 284.317C329.635 283.186 328.162 281.976 326.749 280.687C324.621 278.755 322.623 276.647 320.761 274.364C318.905 272.088 317.173 269.642 315.583 267.022C313.992 264.421 312.533 261.643 311.208 258.698C299.9 233.631 298.061 196.301 305.754 147.07C309.348 124.101 310.454 106.179 309.116 92.4846C308.971 91.0089 308.797 89.5823 308.594 88.205C308.125 84.9944 307.496 82.0495 306.699 79.3768C310.339 78.7275 313.661 78.652 316.678 79.144C318.445 81.8298 319.892 85.0666 321.017 88.8346C321.82 91.527 322.459 94.4949 322.932 97.7284C325.001 111.899 324.073 131.152 320.088 156.591C313.3 200.01 313.933 234.172 321.938 258.83C323.001 262.116 324.198 265.234 325.522 268.179C326.857 271.141 328.32 273.928 329.92 276.545C331.514 279.162 333.242 281.612 335.098 283.888C336.964 286.167 338.955 288.275 341.087 290.21C342.503 291.496 343.976 292.706 345.504 293.841C346.271 294.411 347.058 294.962 347.859 295.493Z" fill="#F0F0F0"/>
<path d="M376.455 314.488L362.193 305.014C361.393 304.483 360.606 303.932 359.838 303.361C358.307 302.223 356.831 301.016 355.418 299.727C353.289 297.796 351.299 295.687 349.436 293.411C347.58 291.135 345.848 288.682 344.251 286.062C342.657 283.445 341.192 280.654 339.86 277.696C338.525 274.735 337.325 271.606 336.256 268.301C335.193 265.015 334.256 261.558 333.452 257.935C328.235 234.378 328.546 203.719 334.426 166.114C338.407 140.673 339.335 121.419 337.266 107.249C335.548 95.4822 331.639 87.2968 325.608 82.8335C325.342 82.6335 325.067 82.4433 324.791 82.2596L339.053 91.7338C339.332 91.9142 339.604 92.1077 339.873 92.3044C345.904 96.7677 349.813 104.953 351.532 116.72C353.598 130.893 352.669 150.147 348.692 175.585C343.72 207.389 342.73 234.228 345.697 256C346.239 259.971 346.911 263.772 347.714 267.409C348.521 271.049 349.462 274.522 350.535 277.824C351.604 281.123 352.807 284.255 354.139 287.213C355.473 290.174 356.939 292.959 358.536 295.579C360.137 298.196 361.862 300.642 363.724 302.918C365.59 305.197 367.584 307.303 369.716 309.231C371.119 310.51 372.582 311.71 374.1 312.835C374.874 313.406 375.655 313.957 376.455 314.488Z" fill="#F0F0F0"/>
<path d="M253.113 34.6516C252.254 34.0809 251.352 33.5792 250.407 33.1529C248.738 32.3953 246.954 31.8575 245.049 31.546C229.659 29.0175 206.401 41.1448 172.735 69.1051C140.009 96.275 101.594 134.756 60.9263 175.496C15.7228 220.778 -31.0252 267.605 -72.6574 301.399C-93.5899 318.39 -111.755 330.848 -127.315 338.847C-131.982 341.244 -136.416 343.244 -140.623 344.841C-141.236 340.004 -141.558 334.849 -141.581 329.376C-136.78 326.91 -131.733 324.014 -126.43 320.698C-114.552 313.261 -101.401 303.678 -86.9228 291.928C-45.2874 258.13 1.45737 211.307 46.6641 166.022C87.3321 125.281 125.747 86.8008 158.466 59.6309C196.307 28.2108 220.991 16.7886 236.145 23.6787C237.087 24.1083 237.988 24.61 238.848 25.1806L239.264 25.4594L253.113 34.6516Z" fill="#F0F0F0"/>
<path d="M281.785 53.695C280.923 53.1211 280.024 52.6226 279.08 52.1963C277.397 51.4322 275.597 50.8911 273.675 50.5828C270.658 50.0909 267.339 50.1631 263.696 50.8091C260.072 51.4486 256.127 52.6587 251.844 54.4427C238.494 60.0013 221.873 71.1448 201.403 88.1452C168.681 115.318 130.266 153.799 89.5983 194.539C44.3916 239.818 -2.35313 286.648 -43.9853 320.442C-77.4025 347.57 -103.759 363.131 -123.741 367.463C-127.371 368.246 -130.785 368.663 -133.999 368.709C-135.412 365.774 -136.626 362.626 -137.636 359.268C-137.77 358.825 -137.898 358.382 -138.022 357.929C-134.346 357.133 -130.457 355.952 -126.348 354.388C-108.114 347.468 -85.5683 333.035 -58.3229 310.919C-16.6875 277.128 30.0573 230.298 75.264 185.019C115.929 144.276 154.347 105.798 187.069 78.6251C214.141 56.1447 234.48 43.8994 249.411 41.2791C253.031 40.6429 256.337 40.5708 259.341 41.0627C261.263 41.371 263.063 41.9121 264.745 42.6762C265.686 43.0992 266.588 43.601 267.447 44.1716L281.785 53.695Z" fill="#F0F0F0"/>
<path d="M310.457 72.7389C309.594 72.165 308.696 71.6665 307.755 71.2369C306.069 70.4695 304.269 69.9284 302.344 69.6234C299.327 69.1315 296.005 69.207 292.361 69.853C288.718 70.4925 284.756 71.7124 280.45 73.5128C276.174 75.2968 271.56 77.6547 266.595 80.5931C261.715 83.479 256.494 86.9289 250.913 90.9495C244.455 95.5964 237.519 101.004 230.075 107.189C197.353 134.362 158.941 172.84 118.273 213.58C73.0635 258.862 26.3187 305.692 -15.3135 339.486C-61.0777 376.632 -93.593 392.095 -114.65 386.72C-114.929 386.651 -115.201 386.575 -115.473 386.5C-118.215 385.713 -120.822 384.778 -123.285 383.68C-125.344 381.712 -127.23 379.557 -128.935 377.209C-126.076 377.937 -123 378.279 -119.717 378.229C-98.7942 377.947 -69.1614 362.042 -29.651 329.963C11.9844 296.172 58.7292 249.342 103.936 204.063C144.604 163.316 183.019 124.842 215.741 97.669C229.659 86.1123 241.796 77.2612 252.336 71.0303C257.271 68.1084 261.859 65.7636 266.116 63.9927C270.422 62.1923 274.383 60.9723 278.027 60.3328C281.667 59.6835 284.986 59.6114 288.006 60.1C289.931 60.4115 291.735 60.9494 293.42 61.7168C294.358 62.1431 295.26 62.6448 296.119 63.2154L310.457 72.7389Z" fill="#F0F0F0"/>
<path d="M339.053 91.7333C338.194 91.1627 337.292 90.661 336.351 90.2314C334.678 89.4705 332.894 88.9327 330.986 88.6244C327.972 88.1293 324.657 88.1981 321.016 88.8343C317.38 89.4738 313.418 90.6872 309.115 92.4843C304.839 94.2617 300.228 96.6164 295.263 99.5482C290.364 102.447 285.117 105.91 279.509 109.95C274.026 113.892 268.198 118.388 262.003 123.442C260.905 124.337 259.793 125.252 258.671 126.184C254.195 129.899 249.62 133.825 244.941 137.94C215.406 163.92 181.979 197.406 146.87 232.574C101.663 277.86 54.9182 324.683 13.2828 358.481C-33.0783 396.112 -65.8429 411.489 -86.8738 405.491C-92.6455 403.845 -97.8106 401.507 -102.362 398.483L-116.625 389.009C-112.073 392.032 -106.908 394.371 -101.139 396.02C-80.1083 402.018 -47.3437 386.641 -0.979402 349.007C40.6528 315.212 87.4008 268.386 132.608 223.1C173.276 182.36 211.687 143.883 244.409 116.709C245.531 115.778 246.643 114.863 247.741 113.968C253.903 108.94 259.704 104.464 265.161 100.535C270.772 96.4918 276.026 93.0222 280.929 90.1199C285.897 87.1782 290.508 84.817 294.788 83.0363C299.094 81.2359 303.055 80.016 306.698 79.3765C310.339 78.7272 313.661 78.6517 316.678 79.1437C318.606 79.4519 320.406 79.993 322.089 80.7571C323.03 81.1867 323.932 81.6885 324.791 82.2591L339.053 91.7333Z" fill="#F0F0F0"/>
<path d="M-159.634 360.449L-173.968 350.928C-174.66 350.466 -175.339 349.99 -176.002 349.499C-177.628 348.298 -179.166 346.996 -180.622 345.599C-182.672 343.642 -184.551 341.494 -186.256 339.159C-189.995 334.049 -192.907 328.054 -194.98 321.181C-200.561 302.632 -200.217 277.45 -193.953 246.328C-188.886 221.178 -179.97 192.172 -167.446 160.122C-146.946 107.655 -123.311 63.983 -121.176 60.0641L-106.839 69.5875C-108.977 73.5031 -132.612 117.175 -153.108 169.646C-165.632 201.695 -174.552 230.699 -179.619 255.848C-185.882 286.97 -186.227 312.153 -180.645 330.701C-179.625 334.075 -178.409 337.24 -176.985 340.192C-175.52 343.238 -173.837 346.055 -171.945 348.643L-171.942 348.646C-170.233 350.997 -168.344 353.155 -166.285 355.123C-164.832 356.517 -163.291 357.822 -161.664 359.022C-161.002 359.514 -160.326 359.986 -159.634 360.449Z" fill="#F0F0F0"/>
<path d="M-137.622 374.157C-140.348 372.953 -142.909 371.553 -145.296 369.966C-145.988 369.51 -146.667 369.034 -147.329 368.542C-148.956 367.342 -150.494 366.04 -151.95 364.643C-154.01 362.675 -155.895 360.521 -157.604 358.169C-159.509 355.569 -161.198 352.732 -162.671 349.666C-164.081 346.728 -165.294 343.579 -166.307 340.225C-166.435 339.801 -166.56 339.375 -166.681 338.946C-171.876 320.522 -171.4 295.785 -165.281 265.372C-160.214 240.222 -151.298 211.216 -138.773 179.166C-118.274 126.699 -94.6391 83.0267 -92.5042 79.1078L-78.1667 88.6312C-80.3048 92.5468 -103.94 136.219 -124.436 188.689C-136.96 220.739 -145.88 249.742 -150.947 274.892C-155.718 298.612 -157.056 318.879 -154.948 335.391C-154.357 340.028 -153.495 344.366 -152.36 348.407C-152.235 348.859 -152.108 349.302 -151.973 349.745C-150.963 353.103 -149.75 356.251 -148.333 359.189C-146.864 362.252 -145.175 365.089 -143.27 367.69C-141.564 370.038 -139.679 372.192 -137.622 374.157Z" fill="#F0F0F0"/>
<path d="M-102.362 398.483L-116.624 389.009C-117.316 388.553 -117.995 388.078 -118.658 387.586C-120.287 386.382 -121.829 385.077 -123.285 383.68C-125.344 381.712 -127.23 379.558 -128.935 377.21C-130.841 374.609 -132.529 371.773 -133.999 368.71C-135.412 365.774 -136.625 362.626 -137.636 359.268C-137.77 358.825 -137.898 358.383 -138.022 357.93C-139.164 353.87 -140.029 349.509 -140.623 344.842C-141.236 340.005 -141.558 334.85 -141.581 329.376C-141.64 316.18 -139.984 301.157 -136.609 284.416C-131.546 259.262 -122.626 230.259 -110.102 198.21C-89.6052 145.739 -65.9705 102.067 -63.8323 98.1514L-49.5669 107.622C-51.7083 111.541 -75.3398 155.216 -95.8394 207.684C-108.363 239.734 -117.28 268.733 -122.347 293.89C-124.259 303.384 -125.62 312.327 -126.43 320.699C-127.046 327.087 -127.341 333.141 -127.315 338.847C-127.292 344.353 -126.971 349.535 -126.348 354.388C-125.754 359.048 -124.885 363.413 -123.741 367.463C-123.619 367.893 -123.498 368.316 -123.37 368.739C-122.357 372.114 -121.133 375.278 -119.717 378.23C-118.244 381.289 -116.555 384.12 -114.65 386.72C-112.938 389.062 -111.056 391.219 -108.996 393.181C-107.547 394.571 -106.019 395.863 -104.395 397.06C-103.73 397.549 -103.051 398.024 -102.362 398.483Z" fill="#F0F0F0"/>
</svg>
