<svg width="520" height="920" viewBox="0 0 520 920" fill="none" xmlns="http://www.w3.org/2000/svg">
<g opacity="0.5" clip-path="url(#clip0_1012_9797)">
<rect width="520" height="920" fill="#F7FBFF"/>
<g filter="url(#filter0_f_1012_9797)">
<path d="M188.054 440.364C102.565 -32.2953 257.92 -211.636 273.542 -260.792C162.132 -766.402 -112.357 -260.792 -57.9394 244.818C-3.52231 750.428 273.542 913.023 188.054 440.364Z" fill="#D9FDFF"/>
</g>
<g filter="url(#filter1_f_1012_9797)">
<path d="M134.622 247.762C67.1844 -124.923 189.736 -266.33 202.059 -305.09C114.174 -703.756 -102.357 -305.09 -59.4303 93.5771C-16.5032 492.244 202.059 620.448 134.622 247.762Z" fill="#6DB3F8"/>
</g>
<g filter="url(#filter2_f_1012_9797)">
<path d="M-19.5145 750.486C2.37784 707.609 52.9063 679.952 79.8813 912.337C113.6 1202.82 -118.91 1018.39 -19.5145 750.486Z" fill="#FACFE9"/>
</g>
<g filter="url(#filter3_f_1012_9797)">
<path d="M532.205 485.556C524.222 519.01 390.149 586.561 414.302 1025.32C438.456 1464.08 625.749 762.837 532.205 485.556Z" fill="#C5ABF2"/>
</g>
</g>
<defs>
<filter id="filter0_f_1012_9797" x="-508" y="-913.223" width="1224.54" height="2077.74" filterUnits="userSpaceOnUse" color-interpolation-filters="sRGB">
<feFlood flood-opacity="0" result="BackgroundImageFix"/>
<feBlend mode="normal" in="SourceGraphic" in2="BackgroundImageFix" result="shape"/>
<feGaussianBlur stdDeviation="221.5" result="effect1_foregroundBlur_1012_9797"/>
</filter>
<filter id="filter1_f_1012_9797" x="-359" y="-764.223" width="855.06" height="1527.67" filterUnits="userSpaceOnUse" color-interpolation-filters="sRGB">
<feFlood flood-opacity="0" result="BackgroundImageFix"/>
<feBlend mode="normal" in="SourceGraphic" in2="BackgroundImageFix" result="shape"/>
<feGaussianBlur stdDeviation="147" result="effect1_foregroundBlur_1012_9797"/>
</filter>
<filter id="filter2_f_1012_9797" x="-146.417" y="619.519" width="331.672" height="542.158" filterUnits="userSpaceOnUse" color-interpolation-filters="sRGB">
<feFlood flood-opacity="0" result="BackgroundImageFix"/>
<feBlend mode="normal" in="SourceGraphic" in2="BackgroundImageFix" result="shape"/>
<feGaussianBlur stdDeviation="51" result="effect1_foregroundBlur_1012_9797"/>
</filter>
<filter id="filter3_f_1012_9797" x="180.396" y="254.556" width="608.792" height="1142.63" filterUnits="userSpaceOnUse" color-interpolation-filters="sRGB">
<feFlood flood-opacity="0" result="BackgroundImageFix"/>
<feBlend mode="normal" in="SourceGraphic" in2="BackgroundImageFix" result="shape"/>
<feGaussianBlur stdDeviation="115.5" result="effect1_foregroundBlur_1012_9797"/>
</filter>
<clipPath id="clip0_1012_9797">
<rect width="520" height="920" fill="white"/>
</clipPath>
</defs>
</svg>
