<svg width="120" height="120" viewBox="0 0 120 120" fill="none" xmlns="http://www.w3.org/2000/svg">
<path fill-rule="evenodd" clip-rule="evenodd" d="M60 105.167C84.9449 105.167 105.167 84.9449 105.167 60C105.167 35.0551 84.9449 14.8333 60 14.8333C35.0551 14.8333 14.8333 35.0551 14.8333 60C14.8333 84.9449 35.0551 105.167 60 105.167ZM108.167 60C108.167 86.6017 86.6017 108.167 60 108.167C33.3983 108.167 11.8333 86.6017 11.8333 60C11.8333 33.3983 33.3983 11.8333 60 11.8333C86.6017 11.8333 108.167 33.3983 108.167 60ZM60 118.5C92.3087 118.5 118.5 92.3087 118.5 60C118.5 27.6913 92.3087 1.5 60 1.5C27.6913 1.5 1.5 27.6913 1.5 60C1.5 92.3087 27.6913 118.5 60 118.5ZM60 120C93.1371 120 120 93.1371 120 60C120 26.8629 93.1371 0 60 0C26.8629 0 0 26.8629 0 60C0 93.1371 26.8629 120 60 120Z" fill="black" fill-opacity="0.04"/>
<path d="M93.3532 28.5817L94.2311 30.9622C94.2641 31.0518 94.3494 31.1112 94.4448 31.1112C94.5402 31.1112 94.6256 31.0518 94.6586 30.9622L95.5365 28.5817C96.2472 26.6546 97.7663 25.1355 99.6932 24.425L102.074 23.547C102.163 23.514 102.223 23.4287 102.223 23.3333C102.223 23.2379 102.163 23.1526 102.074 23.1196L99.6931 22.2416C97.7661 21.531 96.247 20.012 95.5365 18.085L94.6586 15.7046C94.6256 15.6151 94.5402 15.5557 94.4448 15.5557C94.3494 15.5557 94.2641 15.6151 94.2311 15.7046L93.3532 18.085C92.6425 20.012 91.1235 21.531 89.1965 22.2416L86.8159 23.1196C86.7264 23.1526 86.667 23.2379 86.667 23.3333C86.667 23.4287 86.7264 23.514 86.8159 23.547L89.1963 24.425C91.1234 25.1355 92.6425 26.6545 93.3532 28.5817Z" fill="#4ACD6F"/>
<path d="M22.398 100.054L23.1505 102.094C23.1788 102.171 23.252 102.222 23.3337 102.222C23.4155 102.222 23.4886 102.171 23.5169 102.094L24.2694 100.054C24.8786 98.4021 26.1806 97.1 27.8323 96.4909L29.8727 95.7384C29.9494 95.7101 30.0003 95.637 30.0003 95.5552C30.0003 95.4735 29.9494 95.4003 29.8727 95.372L27.8322 94.6195C26.1805 94.0104 24.8784 92.7084 24.2694 91.0567L23.5169 89.0163C23.4886 88.9396 23.4155 88.8887 23.3337 88.8887C23.252 88.8887 23.1788 88.9396 23.1505 89.0163L22.398 91.0567C21.7889 92.7084 20.4869 94.0104 18.8351 94.6195L16.7946 95.372C16.7179 95.4003 16.667 95.4735 16.667 95.5552C16.667 95.637 16.7179 95.7101 16.7946 95.7384L18.835 96.4909C20.4868 97.1 21.7889 98.402 22.398 100.054Z" fill="#4ACD6F"/>
<path d="M98.265 89.6661L98.7667 91.0264C98.7856 91.0776 98.8343 91.1115 98.8888 91.1115C98.9433 91.1115 98.9921 91.0776 99.0109 91.0264L99.5126 89.6661C99.9187 88.5649 100.787 87.6968 101.888 87.2908L103.248 86.7891C103.299 86.7703 103.333 86.7215 103.333 86.667C103.333 86.6125 103.299 86.5638 103.248 86.5449L101.888 86.0432C100.787 85.6371 99.9186 84.7691 99.5126 83.668L99.0109 82.3078C98.9921 82.2566 98.9433 82.2227 98.8888 82.2227C98.8343 82.2227 98.7856 82.2566 98.7667 82.3078L98.265 83.668C97.8589 84.7691 96.9909 85.6371 95.8897 86.0432L94.5294 86.5449C94.4783 86.5638 94.4443 86.6125 94.4443 86.667C94.4443 86.7215 94.4783 86.7703 94.5294 86.7891L95.8897 87.2908C96.9909 87.6968 97.8589 88.5648 98.265 89.6661Z" fill="#4ACD6F"/>
<g filter="url(#filter0_d_1012_9803)">
<path d="M93 60.1719C93 62.75 92.6562 65.3281 92.1406 67.7344C91.7969 69.2813 91.2812 70.6563 90.7656 72.0313C87.5 80.625 80.625 87.5 72.0312 90.7656C71.3437 90.9375 70.8281 91.2812 70.1406 91.4531C66.875 92.4844 63.6094 93 60 93C41.7812 93 27 78.2188 27 60C27 41.7813 41.7812 27 60 27C78.2187 27.1719 93 41.9531 93 60.1719Z" fill="url(#paint0_linear_1012_9803)"/>
</g>
<path d="M92.1406 68.5938C91.7969 69.9688 91.2812 71.3438 90.7656 72.7188C87.5 80.9688 80.9688 87.5 72.7188 90.7656L54.1562 72.2031L51.5781 69.625L69.7969 53.2969L75.8125 49.8594L91.9687 66.0156L92.1406 68.5938Z" fill="url(#paint1_linear_1012_9803)"/>
<path d="M56.5625 73.0625C55.5312 73.0625 54.5 72.7188 53.8125 71.8594L46.25 64.2969C44.7031 62.75 44.7031 60.3437 46.25 58.7969C47.7969 57.25 50.2031 57.25 51.75 58.7969L56.5625 63.6094L70.3125 49.8594C71.8594 48.3125 74.2656 48.3125 75.8125 49.8594C77.3594 51.4062 77.3594 53.8125 75.8125 55.3594L59.3125 71.8594C58.625 72.7188 57.5938 73.0625 56.5625 73.0625Z" fill="url(#paint2_linear_1012_9803)"/>
<defs>
<filter id="filter0_d_1012_9803" x="19" y="24" width="82" height="82" filterUnits="userSpaceOnUse" color-interpolation-filters="sRGB">
<feFlood flood-opacity="0" result="BackgroundImageFix"/>
<feColorMatrix in="SourceAlpha" type="matrix" values="0 0 0 0 0 0 0 0 0 0 0 0 0 0 0 0 0 0 127 0" result="hardAlpha"/>
<feOffset dy="5"/>
<feGaussianBlur stdDeviation="4"/>
<feColorMatrix type="matrix" values="0 0 0 0 0.290196 0 0 0 0 0.803922 0 0 0 0 0.435294 0 0 0 0.25 0"/>
<feBlend mode="normal" in2="BackgroundImageFix" result="effect1_dropShadow_1012_9803"/>
<feBlend mode="normal" in="SourceGraphic" in2="effect1_dropShadow_1012_9803" result="shape"/>
</filter>
<linearGradient id="paint0_linear_1012_9803" x1="42.2701" y1="33.0961" x2="78.5938" y2="88.4147" gradientUnits="userSpaceOnUse">
<stop stop-color="#79E698"/>
<stop offset="1" stop-color="#4ACD6F"/>
</linearGradient>
<linearGradient id="paint1_linear_1012_9803" x1="63.1711" y1="59.1674" x2="77.0289" y2="73.0252" gradientUnits="userSpaceOnUse">
<stop stop-color="#289547"/>
<stop offset="1" stop-color="#4ACD6F" stop-opacity="0"/>
</linearGradient>
<linearGradient id="paint2_linear_1012_9803" x1="69.4621" y1="65.463" x2="55.8313" y2="51.8322" gradientUnits="userSpaceOnUse">
<stop offset="0.0113208" stop-color="#DFFFE8"/>
<stop offset="1" stop-color="white"/>
</linearGradient>
</defs>
</svg>
