<svg width="52" height="32" viewBox="0 0 52 32" fill="none" xmlns="http://www.w3.org/2000/svg">
    <path opacity="0.5"
        d="M1.87343 20.9824L20.9627 1.89315C23.4869 -0.631049 27.5361 -0.631049 30.0603 1.89315C32.5845 4.41734 32.5845 8.46657 30.0603 10.9908L10.9711 30.08C8.44685 32.6042 4.39762 32.6042 1.87343 30.08C-0.624476 27.5821 -0.624476 23.5066 1.87343 20.9824Z"
        fill="#CB9171" />
    <path opacity="0.5"
        d="M30.1652 1.92L49.2544 21.0092C51.7786 23.5334 51.7786 27.5827 49.2544 30.1069C46.7302 32.6311 42.681 32.6311 40.1568 30.1069L21.0676 11.0176C18.5434 8.49343 18.5434 4.4442 21.0676 1.92C23.5918 -0.604194 27.641 -0.604194 30.1652 1.92Z"
        fill="#CB9171" />
</svg>
    