<svg width="226" height="32" viewBox="0 0 226 32" fill="none" xmlns="http://www.w3.org/2000/svg">
    <path opacity="0.5" d="M1.87343 20.9824L20.9627 1.89315C23.4869 -0.631049 27.5361 -0.631049 30.0603 1.89315C32.5845 4.41734 32.5845 8.46657 30.0603 10.9908L10.9711 30.08C8.44685 32.6042 4.39762 32.6042 1.87343 30.08C-0.624476 27.5821 -0.624476 23.5066 1.87343 20.9824Z" fill="#CB9171"/>
    <path opacity="0.5" d="M30.1652 1.92L49.2544 21.0092C51.7786 23.5334 51.7786 27.5827 49.2544 30.1069C46.7302 32.6311 42.681 32.6311 40.1568 30.1069L21.0676 11.0176C18.5434 8.49343 18.5434 4.4442 21.0676 1.92C23.5918 -0.604194 27.641 -0.604194 30.1652 1.92Z" fill="#CB9171"/>
    <path d="M65.4786 27.7244C65.0755 27.7244 64.6724 27.5865 64.4037 27.3106C64.0678 26.9658 64.0006 26.6209 64.0006 26.2072V5.93111C64.0006 5.51732 64.135 5.10352 64.4037 4.82765C64.7396 4.48282 65.0755 4.41385 65.4786 4.41385C65.9489 4.41385 66.3519 4.62075 66.6207 4.96558L79.385 22.414V6.00007C79.385 5.58628 79.5194 5.17249 79.7881 4.89662C80.124 4.55179 80.4599 4.48282 80.863 4.48282C81.2661 4.48282 81.6691 4.62076 81.9379 4.89662C82.2738 5.24145 82.3409 5.51731 82.3409 6.00007V26.2761C82.3409 26.6899 82.2066 27.1037 81.9379 27.3796C81.602 27.7244 81.3332 27.7934 80.863 27.7934C80.6614 27.7934 80.4599 27.7244 80.1912 27.6554C79.9224 27.5175 79.8553 27.3796 79.6537 27.2416L66.8894 9.79321V26.1382C66.8894 26.552 66.755 26.9658 66.4863 27.2416C66.2848 27.5865 65.8817 27.7244 65.4786 27.7244ZM98.8002 28.0003C97.1207 28.0003 95.5084 27.6554 94.0976 27.1037C92.6868 26.483 91.4103 25.6554 90.4026 24.6209C89.3949 23.5864 88.5888 22.2761 88.0513 20.8278C87.5139 19.3105 87.178 17.7243 87.178 16.0002C87.178 14.276 87.5139 12.6208 88.0513 11.1725C88.5888 9.72425 89.3949 8.41389 90.4026 7.3794C91.4103 6.34491 92.6196 5.44835 94.0976 4.89662C95.5084 4.27593 97.0535 4.00006 98.8002 4.00006C100.48 4.00006 102.092 4.34489 103.503 4.89662C104.914 5.44835 106.19 6.34491 107.198 7.3794C108.206 8.41389 109.012 9.65528 109.616 11.1725C110.154 12.6208 110.49 14.207 110.49 16.0002C110.49 17.7243 110.154 19.3795 109.616 20.8278C109.079 22.2761 108.206 23.5864 107.198 24.6209C106.19 25.6554 104.981 26.483 103.503 27.1037C102.025 27.7244 100.547 28.0003 98.8002 28.0003ZM98.8002 25.2416C100.48 25.2416 102.025 24.8968 103.301 24.0692C104.645 23.2416 105.585 22.1382 106.392 20.7588C107.131 19.3105 107.467 17.7933 107.467 16.0002C107.467 14.276 107.131 12.6898 106.392 11.3105C105.653 9.86218 104.645 8.82769 103.301 8.0001C101.958 7.1725 100.48 6.82767 98.8002 6.82767C97.1207 6.82767 95.5755 7.1725 94.2991 8.0001C93.0227 8.82769 92.015 9.93114 91.2088 11.3105C90.4698 12.6898 90.1339 14.207 90.1339 16.0002C90.1339 17.7243 90.4698 19.3105 91.2088 20.7588C91.9478 22.1382 92.9555 23.2416 94.2991 24.0692C95.6427 24.7589 97.0535 25.2416 98.8002 25.2416ZM125.135 28.0003C123.456 28.0003 121.843 27.6554 120.432 27.1037C119.022 26.483 117.745 25.6554 116.737 24.6209C115.73 23.5864 114.924 22.2761 114.386 20.8278C113.849 19.3105 113.513 17.7243 113.513 16.0002C113.513 14.276 113.849 12.6208 114.386 11.1725C114.924 9.72425 115.73 8.41389 116.737 7.3794C117.745 6.34491 118.954 5.44835 120.432 4.89662C121.843 4.27593 123.388 4.00006 125.135 4.00006C126.882 4.00006 128.427 4.34489 129.838 4.89662C131.249 5.44835 132.525 6.34491 133.533 7.3794C134.54 8.41389 135.347 9.65528 135.951 11.1725C136.489 12.6208 136.825 14.207 136.825 16.0002C136.825 17.7243 136.489 19.3795 135.951 20.8278C135.414 22.2761 134.54 23.5864 133.533 24.6209C132.525 25.6554 131.316 26.483 129.838 27.1037C128.427 27.7244 126.882 28.0003 125.135 28.0003ZM125.135 25.2416C126.815 25.2416 128.36 24.8968 129.636 24.0692C130.98 23.2416 131.92 22.1382 132.726 20.7588C133.465 19.3105 133.801 17.7933 133.801 16.0002C133.801 14.276 133.465 12.6898 132.726 11.3105C131.988 9.86218 130.98 8.82769 129.636 8.0001C128.293 7.1725 126.815 6.82767 125.135 6.82767C123.456 6.82767 121.91 7.1725 120.634 8.0001C119.29 8.82769 118.35 9.93114 117.544 11.3105C116.805 12.6898 116.469 14.207 116.469 16.0002C116.469 17.7243 116.805 19.3105 117.544 20.7588C118.283 22.1382 119.29 23.2416 120.634 24.0692C121.978 24.7589 123.456 25.2416 125.135 25.2416ZM143.072 27.7244C142.669 27.7244 142.266 27.5865 141.997 27.3106C141.662 26.9658 141.594 26.6209 141.594 26.2072V5.93111C141.594 5.51732 141.729 5.10352 141.997 4.82765C142.333 4.48282 142.669 4.41385 143.072 4.41385C143.475 4.41385 143.878 4.55179 144.147 4.82765C144.483 5.17248 144.55 5.51732 144.55 5.93111V14.8967L154.224 4.96558C154.493 4.68972 154.627 4.62075 154.896 4.48282C155.098 4.34489 155.299 4.34489 155.501 4.34489C155.971 4.34489 156.374 4.48282 156.508 4.75868C156.777 5.10351 156.844 5.44834 156.777 5.79317C156.71 6.138 156.508 6.55181 156.24 6.89664L148.783 14.5519L156.374 25.1727C156.643 25.5175 156.71 25.8623 156.71 26.2761C156.643 26.621 156.508 26.9658 156.307 27.2416C156.038 27.5175 155.769 27.5865 155.366 27.5865C154.829 27.5865 154.426 27.3106 154.09 26.8968L146.7 16.6209L144.55 18.8278V26.0692C144.55 26.483 144.416 26.8968 144.147 27.1727C143.878 27.5865 143.475 27.7244 143.072 27.7244Z" fill="#CB9171"/>
    <path d="M170.181 28.61C170.421 27.65 170.721 26.58 171.081 25.4C171.441 24.22 171.871 22.82 172.371 21.2C172.891 19.56 173.491 17.62 174.171 15.38C174.851 13.14 175.641 10.49 176.541 7.43C176.581 7.33 176.621 7.16 176.661 6.92C176.721 6.66 176.751 6.42 176.751 6.2C176.751 6 176.711 5.84 176.631 5.72C176.571 5.58 176.461 5.51 176.301 5.51C175.821 5.51 175.361 5.7 174.921 6.08C174.501 6.44 174.131 6.9 173.811 7.46C173.511 8.02 173.271 8.61 173.091 9.23C172.911 9.83 172.821 10.37 172.821 10.85C172.821 11.25 172.871 11.6 172.971 11.9C172.311 11.9 171.841 11.74 171.561 11.42C171.301 11.08 171.171 10.67 171.171 10.19C171.171 9.51 171.371 8.83 171.771 8.15C172.171 7.47 172.681 6.85 173.301 6.29C173.921 5.71 174.571 5.25 175.251 4.91C175.951 4.57 176.591 4.4 177.171 4.4C177.771 4.4 178.261 4.66 178.641 5.18C179.041 5.68 179.361 6.38 179.601 7.28C179.841 8.16 180.041 9.16 180.201 10.28C180.361 11.4 180.511 12.56 180.651 13.76C180.771 14.76 180.891 15.76 181.011 16.76C181.131 17.74 181.251 18.68 181.371 19.58C181.491 20.46 181.601 21.27 181.701 22.01C181.801 22.75 181.891 23.36 181.971 23.84C182.111 22.9 182.311 21.84 182.571 20.66C182.851 19.46 183.151 18.22 183.471 16.94C183.811 15.64 184.161 14.38 184.521 13.16C184.881 11.92 185.211 10.79 185.511 9.77C185.831 8.73 186.101 7.87 186.321 7.19C186.561 6.49 186.721 6.05 186.801 5.87C186.901 5.61 187.131 5.3 187.491 4.94C187.851 4.58 188.251 4.4 188.691 4.4C188.351 5.32 187.961 6.45 187.521 7.79C187.101 9.11 186.671 10.55 186.231 12.11C185.791 13.65 185.361 15.23 184.941 16.85C184.521 18.45 184.141 20 183.801 21.5C183.481 23 183.221 24.37 183.021 25.61C182.841 26.83 182.741 27.83 182.721 28.61C182.101 28.61 181.591 28.43 181.191 28.07C180.811 27.71 180.541 27.08 180.381 26.18C180.281 25.66 180.151 24.95 179.991 24.05C179.851 23.13 179.691 22.11 179.511 20.99C179.351 19.87 179.181 18.71 179.001 17.51C178.821 16.29 178.641 15.1 178.461 13.94C178.301 12.78 178.151 11.72 178.011 10.76C177.871 9.78 177.751 8.97 177.651 8.33C176.691 11.79 175.871 14.72 175.191 17.12C174.511 19.5 173.931 21.45 173.451 22.97C172.991 24.47 172.581 25.63 172.221 26.45C171.861 27.27 171.521 27.83 171.201 28.13C170.881 28.45 170.541 28.61 170.181 28.61ZM188.728 27.41C188.108 27.41 187.588 27.2 187.168 26.78C186.728 26.38 186.508 25.76 186.508 24.92C186.508 24.2 186.668 23.43 186.988 22.61C187.308 21.77 187.748 20.95 188.308 20.15C188.868 19.33 189.498 18.59 190.198 17.93C190.918 17.25 191.668 16.71 192.448 16.31C193.248 15.91 194.038 15.71 194.818 15.71C195.598 15.71 196.248 15.92 196.768 16.34C197.288 16.74 197.548 17.28 197.548 17.96C197.548 18.46 197.408 18.8 197.128 18.98C196.868 19.16 196.518 19.25 196.078 19.25C196.118 19.09 196.148 18.92 196.168 18.74C196.208 18.54 196.228 18.36 196.228 18.2C196.228 17.74 196.118 17.35 195.898 17.03C195.678 16.69 195.298 16.52 194.758 16.52C194.198 16.52 193.628 16.72 193.048 17.12C192.468 17.5 191.908 18.02 191.368 18.68C190.828 19.32 190.348 20.02 189.928 20.78C189.508 21.54 189.178 22.29 188.938 23.03C188.698 23.77 188.578 24.43 188.578 25.01C188.578 25.79 188.848 26.18 189.388 26.18C189.848 26.18 190.348 25.97 190.888 25.55C191.428 25.11 191.978 24.56 192.538 23.9C193.118 23.22 193.668 22.52 194.188 21.8C194.708 21.08 195.168 20.42 195.568 19.82C195.648 19.7 195.698 19.64 195.718 19.64C195.838 19.66 195.988 19.7 196.168 19.76C196.368 19.82 196.538 19.9 196.678 20C196.818 20.1 196.888 20.23 196.888 20.39C196.888 20.57 196.798 20.82 196.618 21.14C196.438 21.44 196.238 21.79 196.018 22.19C195.798 22.59 195.598 23 195.418 23.42C195.238 23.82 195.148 24.2 195.148 24.56C195.148 24.86 195.228 25.16 195.388 25.46C195.548 25.74 195.808 25.88 196.168 25.88C196.708 25.88 197.418 25.49 198.298 24.71C199.178 23.91 200.068 22.72 200.968 21.14L201.268 21.44C200.848 22.52 200.308 23.47 199.648 24.29C198.988 25.11 198.278 25.75 197.518 26.21C196.778 26.67 196.048 26.9 195.328 26.9C194.588 26.9 194.038 26.68 193.678 26.24C193.338 25.8 193.168 25.32 193.168 24.8C193.168 24.68 193.178 24.55 193.198 24.41C193.218 24.25 193.238 24.09 193.258 23.93C192.398 25.09 191.608 25.96 190.888 26.54C190.188 27.12 189.468 27.41 188.728 27.41ZM202.514 26.78C201.734 26.78 201.154 26.53 200.774 26.03C200.394 25.55 200.204 24.96 200.204 24.26C200.204 23.8 200.284 23.22 200.444 22.52C200.624 21.82 200.854 21.09 201.134 20.33C201.414 19.55 201.734 18.82 202.094 18.14C202.474 17.46 202.874 16.91 203.294 16.49C203.714 16.05 204.124 15.83 204.524 15.83C204.704 15.83 204.854 15.89 204.974 16.01C205.114 16.11 205.184 16.27 205.184 16.49C205.184 16.73 205.024 17.12 204.704 17.66C204.404 18.2 204.044 18.82 203.624 19.52C203.204 20.22 202.834 20.96 202.514 21.74C202.214 22.5 202.064 23.23 202.064 23.93C202.064 24.65 202.184 25.13 202.424 25.37C202.664 25.61 203.034 25.73 203.534 25.73C204.214 25.73 204.934 25.39 205.694 24.71C206.474 24.03 207.294 22.84 208.154 21.14L208.424 21.44C207.844 23.16 207.004 24.48 205.904 25.4C204.824 26.32 203.694 26.78 202.514 26.78ZM206.114 13.04C205.794 13.04 205.504 12.96 205.244 12.8C205.004 12.64 204.884 12.39 204.884 12.05C204.884 11.63 205.124 11.27 205.604 10.97C206.104 10.65 206.594 10.49 207.074 10.49C207.374 10.49 207.614 10.56 207.794 10.7C207.974 10.84 208.064 11.08 208.064 11.42C208.064 11.8 207.854 12.17 207.434 12.53C207.034 12.87 206.594 13.04 206.114 13.04ZM210.08 26.9C209.22 26.9 208.6 26.6 208.22 26C207.86 25.42 207.68 24.69 207.68 23.81C207.68 22.85 207.86 21.71 208.22 20.39C208.58 19.07 209.05 17.68 209.63 16.22C210.23 14.76 210.88 13.34 211.58 11.96C212.28 10.56 212.98 9.29 213.68 8.15C214.38 7.01 215.02 6.1 215.6 5.42C216.2 4.74 216.67 4.4 217.01 4.4C217.23 4.4 217.41 4.53 217.55 4.79C217.69 5.03 217.8 5.33 217.88 5.69C217.96 6.03 218 6.34 218 6.62C218 7.16 217.86 7.87 217.58 8.75C217.32 9.61 216.94 10.58 216.44 11.66C215.96 12.72 215.38 13.8 214.7 14.9C214.04 15.98 213.31 17.02 212.51 18.02C211.73 19.02 210.9 19.88 210.02 20.6C209.9 21.14 209.8 21.67 209.72 22.19C209.66 22.69 209.63 23.17 209.63 23.63C209.63 24.41 209.74 24.99 209.96 25.37C210.18 25.75 210.51 25.94 210.95 25.94C211.49 25.94 212.02 25.7 212.54 25.22C213.08 24.74 213.58 24.14 214.04 23.42C214.52 22.68 214.93 21.92 215.27 21.14L215.72 21.38C214.92 23.08 214.05 24.43 213.11 25.43C212.17 26.41 211.16 26.9 210.08 26.9ZM210.29 19.58C210.99 18.88 211.67 18.08 212.33 17.18C212.99 16.26 213.6 15.31 214.16 14.33C214.74 13.35 215.25 12.4 215.69 11.48C216.13 10.56 216.47 9.74 216.71 9.02C216.95 8.28 217.07 7.71 217.07 7.31C217.07 7.11 217.04 6.98 216.98 6.92C216.94 6.86 216.9 6.83 216.86 6.83C216.7 6.83 216.42 7.09 216.02 7.61C215.64 8.11 215.19 8.79 214.67 9.65C214.15 10.51 213.62 11.49 213.08 12.59C212.54 13.69 212.02 14.84 211.52 16.04C211.04 17.24 210.63 18.42 210.29 19.58ZM217.83 27.53C216.89 27.53 216.14 27.32 215.58 26.9C215.04 26.5 214.66 26 214.44 25.4C214.2 24.8 214.08 24.2 214.08 23.6C214.08 23 214.16 22.54 214.32 22.22C214.48 21.9 214.67 21.66 214.89 21.5C215.13 21.34 215.35 21.22 215.55 21.14C215.77 21.06 215.92 20.98 216 20.9C216.6 20.24 217.15 19.55 217.65 18.83C218.15 18.11 218.59 17.35 218.97 16.55V16.19C218.97 15.45 219.09 14.93 219.33 14.63C219.59 14.31 219.86 14.15 220.14 14.15C220.3 14.15 220.42 14.19 220.5 14.27C220.58 14.35 220.62 14.44 220.62 14.54C220.62 14.64 220.59 14.8 220.53 15.02C220.47 15.24 220.44 15.52 220.44 15.86C220.44 16.52 220.57 17.24 220.83 18.02C221.09 18.78 221.35 19.59 221.61 20.45C221.87 21.29 222 22.17 222 23.09C222 23.35 221.98 23.61 221.94 23.87C221.92 24.11 221.88 24.34 221.82 24.56C222.52 24.44 223.18 24.13 223.8 23.63C224.42 23.11 225.02 22.29 225.6 21.17L225.87 21.47C225.49 22.57 224.92 23.41 224.16 23.99C223.4 24.55 222.57 24.9 221.67 25.04C221.35 25.9 220.84 26.53 220.14 26.93C219.46 27.33 218.69 27.53 217.83 27.53ZM217.89 26.48C218.13 26.48 218.45 26.4 218.85 26.24C219.25 26.08 219.56 25.67 219.78 25.01C218.94 24.85 218.19 24.52 217.53 24.02C216.89 23.52 216.41 23.02 216.09 22.52C215.65 22.54 215.43 22.89 215.43 23.57C215.43 24.29 215.64 24.96 216.06 25.58C216.5 26.18 217.11 26.48 217.89 26.48ZM219.93 24.53C219.97 24.33 220 24.12 220.02 23.9C220.04 23.68 220.05 23.42 220.05 23.12C220.05 22.18 219.93 21.25 219.69 20.33C219.47 19.39 219.28 18.51 219.12 17.69C218.66 18.45 218.17 19.18 217.65 19.88C217.15 20.56 216.67 21.13 216.21 21.59C216.51 22.23 216.97 22.83 217.59 23.39C218.23 23.95 219.01 24.33 219.93 24.53Z" fill="#CB9171"/>
    </svg>
    