<svg width="172" height="24" viewBox="0 0 172 24" fill="none" xmlns="http://www.w3.org/2000/svg">
    <path opacity="0.5" d="M1.40507 15.7368L15.722 1.41986C17.6151 -0.473287 20.6521 -0.473287 22.5452 1.41986C24.4384 3.31301 24.4384 6.34993 22.5452 8.24308L8.22829 22.56C6.33514 24.4531 3.29822 24.4531 1.40507 22.56C-0.468357 20.6866 -0.468357 17.6299 1.40507 15.7368Z" fill="#CB9171"/>
    <path opacity="0.5" d="M22.6239 1.44L36.9409 15.7569C38.834 17.6501 38.834 20.687 36.9409 22.5801C35.0477 24.4733 32.0108 24.4733 30.1176 22.5801L15.8007 8.26322C13.9076 6.37007 13.9076 3.33315 15.8007 1.44C17.6939 -0.453145 20.7308 -0.453145 22.6239 1.44Z" fill="#CB9171"/>
    <path d="M49.109 20.7933C48.8067 20.7933 48.5043 20.6899 48.3028 20.483C48.0509 20.2244 48.0005 19.9657 48.0005 19.6554V4.44835C48.0005 4.138 48.1013 3.82765 48.3028 3.62075C48.5547 3.36213 48.8067 3.3104 49.109 3.3104C49.4617 3.3104 49.764 3.46558 49.9655 3.7242L59.5388 16.8105V4.50007C59.5388 4.18972 59.6395 3.87938 59.8411 3.67248C60.093 3.41386 60.3449 3.36213 60.6473 3.36213C60.9496 3.36213 61.2519 3.46558 61.4534 3.67248C61.7054 3.93111 61.7557 4.138 61.7557 4.50007V19.7071C61.7557 20.0175 61.655 20.3278 61.4534 20.5347C61.2015 20.7933 61 20.845 60.6473 20.845C60.4961 20.845 60.3449 20.7933 60.1434 20.7416C59.9419 20.6381 59.8915 20.5347 59.7403 20.4312L50.1671 7.34492V19.6037C50.1671 19.914 50.0663 20.2243 49.8648 20.4312C49.7136 20.6899 49.4113 20.7933 49.109 20.7933ZM74.1002 21.0002C72.8406 21.0002 71.6313 20.7416 70.5732 20.3278C69.5151 19.8623 68.5578 19.2416 67.802 18.4657C67.0462 17.6898 66.4416 16.7071 66.0385 15.6209C65.6354 14.4829 65.3835 13.2933 65.3835 12.0001C65.3835 10.707 65.6354 9.46563 66.0385 8.37942C66.4416 7.2932 67.0462 6.31043 67.802 5.53456C68.5578 4.75869 69.4647 4.08628 70.5732 3.67248C71.6313 3.20696 72.7902 3.00006 74.1002 3.00006C75.3598 3.00006 76.5691 3.25869 77.6272 3.67248C78.6853 4.08628 79.6426 4.75869 80.3984 5.53456C81.1542 6.31043 81.7588 7.24147 82.2123 8.37942C82.6154 9.46563 82.8673 10.6553 82.8673 12.0001C82.8673 13.2933 82.6154 14.5346 82.2123 15.6209C81.8092 16.7071 81.1542 17.6898 80.3984 18.4657C79.6426 19.2416 78.7357 19.8623 77.6272 20.3278C76.5187 20.7933 75.4102 21.0002 74.1002 21.0002ZM74.1002 18.9312C75.3598 18.9312 76.5187 18.6726 77.476 18.0519C78.4837 17.4312 79.1891 16.6036 79.7938 15.5691C80.348 14.4829 80.5999 13.345 80.5999 12.0001C80.5999 10.707 80.348 9.51736 79.7938 8.48286C79.2395 7.39665 78.4837 6.62078 77.476 6.00009C76.4683 5.37939 75.3598 5.12076 74.1002 5.12076C72.8406 5.12076 71.6817 5.37939 70.7244 6.00009C69.767 6.62078 69.0113 7.44837 68.4066 8.48286C67.8524 9.51736 67.6005 10.6553 67.6005 12.0001C67.6005 13.2933 67.8524 14.4829 68.4066 15.5691C68.9609 16.6036 69.7167 17.4312 70.7244 18.0519C71.7321 18.5692 72.7902 18.9312 74.1002 18.9312ZM93.8513 21.0002C92.5917 21.0002 91.3824 20.7416 90.3243 20.3278C89.2663 19.8623 88.3089 19.2416 87.5531 18.4657C86.7974 17.6898 86.1927 16.7071 85.7896 15.6209C85.3866 14.4829 85.1346 13.2933 85.1346 12.0001C85.1346 10.707 85.3866 9.46563 85.7896 8.37942C86.1927 7.2932 86.7974 6.31043 87.5531 5.53456C88.3089 4.75869 89.2159 4.08628 90.3243 3.67248C91.3824 3.20696 92.5413 3.00006 93.8513 3.00006C95.1614 3.00006 96.3202 3.25869 97.3783 3.67248C98.4364 4.08628 99.3937 4.75869 100.15 5.53456C100.905 6.31043 101.51 7.24147 101.963 8.37942C102.366 9.46563 102.618 10.6553 102.618 12.0001C102.618 13.2933 102.366 14.5346 101.963 15.6209C101.56 16.7071 100.905 17.6898 100.15 18.4657C99.3937 19.2416 98.4868 19.8623 97.3783 20.3278C96.3202 20.7933 95.1614 21.0002 93.8513 21.0002ZM93.8513 18.9312C95.111 18.9312 96.2698 18.6726 97.2272 18.0519C98.2349 17.4312 98.9403 16.6036 99.5449 15.5691C100.099 14.4829 100.351 13.345 100.351 12.0001C100.351 10.707 100.099 9.51736 99.5449 8.48286C98.9907 7.39665 98.2349 6.62078 97.2272 6.00009C96.2195 5.37939 95.111 5.12076 93.8513 5.12076C92.5917 5.12076 91.4328 5.37939 90.4755 6.00009C89.4678 6.62078 88.7624 7.44837 88.1578 8.48286C87.6035 9.51736 87.3516 10.6553 87.3516 12.0001C87.3516 13.2933 87.6035 14.4829 88.1578 15.5691C88.712 16.6036 89.4678 17.4312 90.4755 18.0519C91.4832 18.5692 92.5917 18.9312 93.8513 18.9312ZM107.304 20.7933C107.002 20.7933 106.7 20.6899 106.498 20.483C106.246 20.2244 106.196 19.9657 106.196 19.6554V4.44835C106.196 4.138 106.297 3.82765 106.498 3.62075C106.75 3.36213 107.002 3.3104 107.304 3.3104C107.607 3.3104 107.909 3.41386 108.11 3.62075C108.362 3.87938 108.413 4.138 108.413 4.44835V11.1725L115.668 3.7242C115.87 3.5173 115.971 3.46558 116.172 3.36213C116.323 3.25868 116.474 3.25868 116.626 3.25868C116.978 3.25868 117.281 3.36213 117.381 3.56903C117.583 3.82765 117.633 4.08627 117.583 4.3449C117.533 4.60352 117.381 4.91387 117.18 5.17249L111.587 10.9139L117.281 18.8795C117.482 19.1381 117.533 19.3968 117.533 19.7071C117.482 19.9657 117.381 20.2243 117.23 20.4312C117.029 20.6381 116.827 20.6899 116.525 20.6899C116.122 20.6899 115.819 20.483 115.568 20.1726L110.025 12.4657L108.413 14.1208V19.5519C108.413 19.8623 108.312 20.1726 108.11 20.3795C107.909 20.6899 107.607 20.7933 107.304 20.7933Z" fill="#CB9171"/>
    <path d="M126.705 22.088C126.897 21.32 127.137 20.464 127.425 19.52C127.713 18.576 128.057 17.456 128.457 16.16C128.873 14.848 129.353 13.296 129.897 11.504C130.441 9.712 131.073 7.592 131.793 5.144C131.825 5.064 131.857 4.928 131.889 4.736C131.937 4.528 131.961 4.336 131.961 4.16C131.961 4 131.929 3.872 131.865 3.776C131.817 3.664 131.729 3.608 131.601 3.608C131.217 3.608 130.849 3.76 130.497 4.064C130.161 4.352 129.865 4.72 129.609 5.168C129.369 5.616 129.177 6.088 129.033 6.584C128.889 7.064 128.817 7.496 128.817 7.88C128.817 8.2 128.857 8.48 128.937 8.72C128.409 8.72 128.033 8.592 127.809 8.336C127.601 8.064 127.497 7.736 127.497 7.352C127.497 6.808 127.657 6.264 127.977 5.72C128.297 5.176 128.705 4.68 129.201 4.232C129.697 3.768 130.217 3.4 130.761 3.128C131.321 2.856 131.833 2.72 132.297 2.72C132.777 2.72 133.169 2.928 133.473 3.344C133.793 3.744 134.049 4.304 134.241 5.024C134.433 5.728 134.593 6.528 134.721 7.424C134.849 8.32 134.969 9.248 135.081 10.208C135.177 11.008 135.273 11.808 135.369 12.608C135.465 13.392 135.561 14.144 135.657 14.864C135.753 15.568 135.841 16.216 135.921 16.808C136.001 17.4 136.073 17.888 136.137 18.272C136.249 17.52 136.409 16.672 136.617 15.728C136.841 14.768 137.081 13.776 137.337 12.752C137.609 11.712 137.889 10.704 138.177 9.728C138.465 8.736 138.729 7.832 138.969 7.016C139.225 6.184 139.441 5.496 139.617 4.952C139.809 4.392 139.937 4.04 140.001 3.896C140.081 3.688 140.265 3.44 140.553 3.152C140.841 2.864 141.161 2.72 141.513 2.72C141.241 3.456 140.929 4.36 140.577 5.432C140.241 6.488 139.897 7.64 139.545 8.888C139.193 10.12 138.849 11.384 138.513 12.68C138.177 13.96 137.873 15.2 137.601 16.4C137.345 17.6 137.137 18.696 136.977 19.688C136.833 20.664 136.753 21.464 136.737 22.088C136.241 22.088 135.833 21.944 135.513 21.656C135.209 21.368 134.993 20.864 134.865 20.144C134.785 19.728 134.681 19.16 134.553 18.44C134.441 17.704 134.313 16.888 134.169 15.992C134.041 15.096 133.905 14.168 133.761 13.208C133.617 12.232 133.473 11.28 133.329 10.352C133.201 9.424 133.081 8.576 132.969 7.808C132.857 7.024 132.761 6.376 132.681 5.864C131.913 8.632 131.257 10.976 130.713 12.896C130.169 14.8 129.705 16.36 129.321 17.576C128.953 18.776 128.625 19.704 128.337 20.36C128.049 21.016 127.777 21.464 127.521 21.704C127.265 21.96 126.993 22.088 126.705 22.088ZM141.542 21.128C141.046 21.128 140.63 20.96 140.294 20.624C139.942 20.304 139.766 19.808 139.766 19.136C139.766 18.56 139.894 17.944 140.15 17.288C140.406 16.616 140.758 15.96 141.206 15.32C141.654 14.664 142.158 14.072 142.718 13.544C143.294 13 143.894 12.568 144.518 12.248C145.158 11.928 145.79 11.768 146.414 11.768C147.038 11.768 147.558 11.936 147.974 12.272C148.39 12.592 148.598 13.024 148.598 13.568C148.598 13.968 148.486 14.24 148.262 14.384C148.054 14.528 147.774 14.6 147.422 14.6C147.454 14.472 147.478 14.336 147.494 14.192C147.526 14.032 147.542 13.888 147.542 13.76C147.542 13.392 147.454 13.08 147.278 12.824C147.102 12.552 146.798 12.416 146.366 12.416C145.918 12.416 145.462 12.576 144.998 12.896C144.534 13.2 144.086 13.616 143.654 14.144C143.222 14.656 142.838 15.216 142.502 15.824C142.166 16.432 141.902 17.032 141.71 17.624C141.518 18.216 141.422 18.744 141.422 19.208C141.422 19.832 141.638 20.144 142.07 20.144C142.438 20.144 142.838 19.976 143.27 19.64C143.702 19.288 144.142 18.848 144.59 18.32C145.054 17.776 145.494 17.216 145.91 16.64C146.326 16.064 146.694 15.536 147.014 15.056C147.078 14.96 147.118 14.912 147.134 14.912C147.23 14.928 147.35 14.96 147.494 15.008C147.654 15.056 147.79 15.12 147.902 15.2C148.014 15.28 148.07 15.384 148.07 15.512C148.07 15.656 147.998 15.856 147.854 16.112C147.71 16.352 147.55 16.632 147.374 16.952C147.198 17.272 147.038 17.6 146.894 17.936C146.75 18.256 146.678 18.56 146.678 18.848C146.678 19.088 146.742 19.328 146.87 19.568C146.998 19.792 147.206 19.904 147.494 19.904C147.926 19.904 148.494 19.592 149.198 18.968C149.902 18.328 150.614 17.376 151.334 16.112L151.574 16.352C151.238 17.216 150.806 17.976 150.278 18.632C149.75 19.288 149.182 19.8 148.574 20.168C147.982 20.536 147.398 20.72 146.822 20.72C146.23 20.72 145.79 20.544 145.502 20.192C145.23 19.84 145.094 19.456 145.094 19.04C145.094 18.944 145.102 18.84 145.118 18.728C145.134 18.6 145.15 18.472 145.166 18.344C144.478 19.272 143.846 19.968 143.27 20.432C142.71 20.896 142.134 21.128 141.542 21.128ZM152.571 20.624C151.947 20.624 151.483 20.424 151.179 20.024C150.875 19.64 150.723 19.168 150.723 18.608C150.723 18.24 150.787 17.776 150.915 17.216C151.059 16.656 151.243 16.072 151.467 15.464C151.691 14.84 151.947 14.256 152.235 13.712C152.539 13.168 152.859 12.728 153.195 12.392C153.531 12.04 153.859 11.864 154.179 11.864C154.323 11.864 154.443 11.912 154.539 12.008C154.651 12.088 154.707 12.216 154.707 12.392C154.707 12.584 154.579 12.896 154.323 13.328C154.083 13.76 153.795 14.256 153.459 14.816C153.123 15.376 152.827 15.968 152.571 16.592C152.331 17.2 152.211 17.784 152.211 18.344C152.211 18.92 152.307 19.304 152.499 19.496C152.691 19.688 152.987 19.784 153.387 19.784C153.931 19.784 154.507 19.512 155.115 18.968C155.739 18.424 156.395 17.472 157.083 16.112L157.299 16.352C156.835 17.728 156.163 18.784 155.283 19.52C154.419 20.256 153.515 20.624 152.571 20.624ZM155.451 9.632C155.195 9.632 154.963 9.568 154.755 9.44C154.563 9.312 154.467 9.112 154.467 8.84C154.467 8.504 154.659 8.216 155.043 7.976C155.443 7.72 155.835 7.592 156.219 7.592C156.459 7.592 156.651 7.648 156.795 7.76C156.939 7.872 157.011 8.064 157.011 8.336C157.011 8.64 156.843 8.936 156.507 9.224C156.187 9.496 155.835 9.632 155.451 9.632ZM158.624 20.72C157.936 20.72 157.44 20.48 157.136 20C156.848 19.536 156.704 18.952 156.704 18.248C156.704 17.48 156.848 16.568 157.136 15.512C157.424 14.456 157.8 13.344 158.264 12.176C158.744 11.008 159.264 9.872 159.824 8.768C160.384 7.648 160.944 6.632 161.504 5.72C162.064 4.808 162.576 4.08 163.04 3.536C163.52 2.992 163.896 2.72 164.168 2.72C164.344 2.72 164.488 2.824 164.6 3.032C164.712 3.224 164.8 3.464 164.864 3.752C164.928 4.024 164.96 4.272 164.96 4.496C164.96 4.928 164.848 5.496 164.624 6.2C164.416 6.888 164.112 7.664 163.712 8.528C163.328 9.376 162.864 10.24 162.32 11.12C161.792 11.984 161.208 12.816 160.568 13.616C159.944 14.416 159.28 15.104 158.576 15.68C158.48 16.112 158.4 16.536 158.336 16.952C158.288 17.352 158.264 17.736 158.264 18.104C158.264 18.728 158.352 19.192 158.528 19.496C158.704 19.8 158.968 19.952 159.32 19.952C159.752 19.952 160.176 19.76 160.592 19.376C161.024 18.992 161.424 18.512 161.792 17.936C162.176 17.344 162.504 16.736 162.776 16.112L163.136 16.304C162.496 17.664 161.8 18.744 161.048 19.544C160.296 20.328 159.488 20.72 158.624 20.72ZM158.792 14.864C159.352 14.304 159.896 13.664 160.424 12.944C160.952 12.208 161.44 11.448 161.888 10.664C162.352 9.88 162.76 9.12 163.112 8.384C163.464 7.648 163.736 6.992 163.928 6.416C164.12 5.824 164.216 5.368 164.216 5.048C164.216 4.888 164.192 4.784 164.144 4.736C164.112 4.688 164.08 4.664 164.048 4.664C163.92 4.664 163.696 4.872 163.376 5.288C163.072 5.688 162.712 6.232 162.296 6.92C161.88 7.608 161.456 8.392 161.024 9.272C160.592 10.152 160.176 11.072 159.776 12.032C159.392 12.992 159.064 13.936 158.792 14.864ZM164.824 21.224C164.072 21.224 163.472 21.056 163.024 20.72C162.592 20.4 162.288 20 162.112 19.52C161.92 19.04 161.824 18.56 161.824 18.08C161.824 17.6 161.888 17.232 162.016 16.976C162.144 16.72 162.296 16.528 162.472 16.4C162.664 16.272 162.84 16.176 163 16.112C163.176 16.048 163.296 15.984 163.36 15.92C163.84 15.392 164.28 14.84 164.68 14.264C165.08 13.688 165.432 13.08 165.736 12.44V12.152C165.736 11.56 165.832 11.144 166.024 10.904C166.232 10.648 166.448 10.52 166.672 10.52C166.8 10.52 166.896 10.552 166.96 10.616C167.024 10.68 167.056 10.752 167.056 10.832C167.056 10.912 167.032 11.04 166.984 11.216C166.936 11.392 166.912 11.616 166.912 11.888C166.912 12.416 167.016 12.992 167.224 13.616C167.432 14.224 167.64 14.872 167.848 15.56C168.056 16.232 168.16 16.936 168.16 17.672C168.16 17.88 168.144 18.088 168.112 18.296C168.096 18.488 168.064 18.672 168.016 18.848C168.576 18.752 169.104 18.504 169.6 18.104C170.096 17.688 170.576 17.032 171.04 16.136L171.256 16.376C170.952 17.256 170.496 17.928 169.888 18.392C169.28 18.84 168.616 19.12 167.896 19.232C167.64 19.92 167.232 20.424 166.672 20.744C166.128 21.064 165.512 21.224 164.824 21.224ZM164.872 20.384C165.064 20.384 165.32 20.32 165.64 20.192C165.96 20.064 166.208 19.736 166.384 19.208C165.712 19.08 165.112 18.816 164.584 18.416C164.072 18.016 163.688 17.616 163.432 17.216C163.08 17.232 162.904 17.512 162.904 18.056C162.904 18.632 163.072 19.168 163.408 19.664C163.76 20.144 164.248 20.384 164.872 20.384ZM166.504 18.824C166.536 18.664 166.56 18.496 166.576 18.32C166.592 18.144 166.6 17.936 166.6 17.696C166.6 16.944 166.504 16.2 166.312 15.464C166.136 14.712 165.984 14.008 165.856 13.352C165.488 13.96 165.096 14.544 164.68 15.104C164.28 15.648 163.896 16.104 163.528 16.472C163.768 16.984 164.136 17.464 164.632 17.912C165.144 18.36 165.768 18.664 166.504 18.824Z" fill="#CB9171"/>
    </svg>
    