<svg width="28" height="16" viewBox="0 0 28 16" fill="none" xmlns="http://www.w3.org/2000/svg">
<path d="M19.0977 0.484375L18.6289 0.894531C18.3945 1.1875 18.3945 1.59766 18.6289 1.89062L23.5508 6.75391H1.57812C1.16797 6.75391 0.875 7.10547 0.875 7.45703V8.04297C0.875 8.45312 1.16797 8.74609 1.57812 8.74609H23.5508L18.6289 13.668C18.3945 13.9609 18.3945 14.3711 18.6289 14.6641L19.0977 15.0742C19.332 15.3672 19.8008 15.3672 20.0938 15.0742L26.8906 8.27734C27.1836 7.98438 27.1836 7.57422 26.8906 7.28125L20.0938 0.484375C19.8008 0.191406 19.332 0.191406 19.0977 0.484375Z" fill="#011222" fill-opacity="0.7"/>
</svg>
