<svg width="19" height="21" viewBox="0 0 19 21" fill="none" xmlns="http://www.w3.org/2000/svg">
<path d="M5.125 14.875H8.875C9.1875 14.875 9.5 14.6016 9.5 14.25V10.5C9.5 10.1875 9.1875 9.875 8.875 9.875H5.125C4.77344 9.875 4.5 10.1875 4.5 10.5V14.25C4.5 14.6016 4.77344 14.875 5.125 14.875ZM16.375 3H14.5V1.125C14.5 0.8125 14.1875 0.5 13.875 0.5H12.625C12.2734 0.5 12 0.8125 12 1.125V3H7V1.125C7 0.8125 6.6875 0.5 6.375 0.5H5.125C4.77344 0.5 4.5 0.8125 4.5 1.125V3H2.625C1.57031 3 0.75 3.85938 0.75 4.875V18.625C0.75 19.6797 1.57031 20.5 2.625 20.5H16.375C17.3906 20.5 18.25 19.6797 18.25 18.625V4.875C18.25 3.85938 17.3906 3 16.375 3ZM16.375 18.3906C16.375 18.5469 16.2578 18.625 16.1406 18.625H2.85938C2.70312 18.625 2.625 18.5469 2.625 18.3906V6.75H16.375V18.3906Z" fill="white"/>
</svg>
