<svg width="16" height="16" viewBox="0 0 16 16" fill="none" xmlns="http://www.w3.org/2000/svg">
<path d="M7.99992 1.33301C4.31992 1.33301 1.33325 4.31967 1.33325 7.99967C1.33325 11.6797 4.31992 14.6663 7.99992 14.6663C11.6799 14.6663 14.6666 11.6797 14.6666 7.99967C14.6666 4.31967 11.6799 1.33301 7.99992 1.33301ZM7.99992 13.333C5.05992 13.333 2.66659 10.9397 2.66659 7.99967C2.66659 5.05967 5.05992 2.66634 7.99992 2.66634C10.9399 2.66634 13.3333 5.05967 13.3333 7.99967C13.3333 10.9397 10.9399 13.333 7.99992 13.333ZM10.5866 5.52634L6.66659 9.44634L5.41325 8.19301C5.15325 7.93301 4.73325 7.93301 4.47325 8.19301C4.21325 8.45301 4.21325 8.87301 4.47325 9.13301L6.19992 10.8597C6.45992 11.1197 6.87992 11.1197 7.13992 10.8597L11.5333 6.46634C11.7933 6.20634 11.7933 5.78634 11.5333 5.52634C11.2733 5.26634 10.8466 5.26634 10.5866 5.52634Z" fill="#2E7D32"/>
</svg>
