<svg width="24" height="24" viewBox="0 0 24 24" fill="none" xmlns="http://www.w3.org/2000/svg">
<path d="M12.0004 2.40039C6.59319 2.40039 2.40039 6.36268 2.40039 11.7121C2.40039 14.5105 3.54759 16.9296 5.41479 18.5999C5.57079 18.7391 5.66679 18.9359 5.67159 19.1471L5.72439 20.8559C5.72824 20.9816 5.7629 21.1045 5.82535 21.2137C5.8878 21.3229 5.97611 21.415 6.08252 21.4821C6.18894 21.5492 6.3102 21.5891 6.43565 21.5983C6.5611 21.6076 6.6869 21.5858 6.80199 21.5351L8.70759 20.6951C8.86839 20.6231 9.05079 20.6111 9.22119 20.6567C10.0972 20.8967 11.0284 21.0263 12.0004 21.0263C17.4076 21.0263 21.6004 17.064 21.6004 11.7145C21.6004 6.36508 17.4076 2.40039 12.0004 2.40039Z" fill="url(#paint0_radial_1290_5106)"/>
<path d="M6.23559 14.4361L9.05559 9.96258C9.16167 9.79416 9.30153 9.64956 9.46631 9.53791C9.6311 9.42626 9.81725 9.34998 10.013 9.3139C10.2088 9.27782 10.4099 9.28271 10.6036 9.32827C10.7974 9.37383 10.9796 9.45906 11.1388 9.57859L13.3828 11.2609C13.483 11.3359 13.6048 11.3763 13.73 11.3758C13.8551 11.3754 13.9767 11.3342 14.0764 11.2585L17.1052 8.95941C17.5084 8.65222 18.0364 9.13701 17.7676 9.56659L14.9452 14.0377C14.8391 14.2061 14.6993 14.3507 14.5345 14.4623C14.3697 14.574 14.1835 14.6503 13.9878 14.6864C13.792 14.7224 13.5909 14.7175 13.3971 14.672C13.2034 14.6264 13.0212 14.5412 12.862 14.4217L10.618 12.7393C10.5178 12.6643 10.3959 12.624 10.2708 12.6244C10.1456 12.6248 10.024 12.666 9.92439 12.7417L6.89559 15.0408C6.49239 15.348 5.96439 14.8656 6.23559 14.4361Z" fill="white"/>
<defs>
<radialGradient id="paint0_radial_1290_5106" cx="0" cy="0" r="1" gradientUnits="userSpaceOnUse" gradientTransform="translate(5.61639 21.5999) scale(21.12 21.1194)">
<stop stop-color="#0099FF"/>
<stop offset="0.6" stop-color="#A033FF"/>
<stop offset="0.9" stop-color="#FF5280"/>
<stop offset="1" stop-color="#FF7061"/>
</radialGradient>
</defs>
</svg>
