<svg width="24" height="24" viewBox="0 0 24 24" fill="none" xmlns="http://www.w3.org/2000/svg">
<path d="M21.375 9.21875L15.6719 8.39844L13.0938 3.20312C12.6641 2.30469 11.3359 2.26562 10.8672 3.20312L8.32812 8.39844L2.58594 9.21875C1.57031 9.375 1.17969 10.625 1.92188 11.3672L6.02344 15.3906L5.04688 21.0547C4.89062 22.0703 5.98438 22.8516 6.88281 22.3828L12 19.6875L17.0781 22.3828C17.9766 22.8516 19.0703 22.0703 18.9141 21.0547L17.9375 15.3906L22.0391 11.3672C22.7812 10.625 22.3906 9.375 21.375 9.21875ZM15.9062 14.7266L16.8438 20.1172L12 17.5781L7.11719 20.1172L8.05469 14.7266L4.10938 10.8984L9.53906 10.1172L12 5.19531L14.4219 10.1172L19.8516 10.8984L15.9062 14.7266Z" fill="white"/>
</svg>
