<svg width="25" height="24" viewBox="0 0 25 24" fill="none" xmlns="http://www.w3.org/2000/svg">
<rect x="1.5" y="2" width="21" height="20" rx="3" fill="white"/>
<path d="M5.28376 19.4489C5.2013 19.4123 5.14175 19.371 5.23795 19.2886C5.2975 19.2428 5.36164 19.2015 5.42577 19.1603C6.02588 18.7709 6.58934 18.3449 6.9604 17.7173C7.2719 17.1951 7.22151 16.8881 6.83213 16.5033C4.66075 14.3319 3.7079 11.7345 4.18432 8.66525C4.4546 6.93364 5.24711 5.43565 6.40152 4.13465C7.09783 3.34672 7.92699 2.70996 8.83402 2.17856C8.88899 2.1465 8.96687 2.13733 8.97603 2.05488C8.95771 2.00907 8.92564 2.02281 8.89815 2.02281C7.35436 2.02281 5.81057 1.99074 4.27136 2.03197C2.79629 2.07778 1.52278 3.21845 1.52736 4.85386C1.53652 9.63184 1.52736 14.4098 1.52736 19.1924C1.52736 20.6766 2.65886 21.9181 4.13851 21.973C5.38912 22.0234 6.63973 21.9822 7.89492 21.9776C7.98654 21.9822 8.07816 21.9868 8.16978 21.9868H14.7847C16.4339 21.9868 18.083 21.9959 19.7322 21.9868C21.2622 21.9868 22.5037 20.7499 22.5037 19.2244V19.197V16.5171C22.5037 16.4529 22.5266 16.3842 22.4853 16.3155C22.4029 16.3201 22.3708 16.3888 22.325 16.4346C21.4363 17.3279 20.3873 18.0471 19.2374 18.5556C16.4201 19.7971 13.5524 19.8841 10.6435 18.8855C10.3916 18.7938 10.1167 18.7847 9.85558 18.8488C9.47078 18.945 9.09055 19.0595 8.71033 19.1741C7.59257 19.5222 6.45191 19.678 5.28376 19.4489ZM8.60497 11.7299C8.68285 11.6292 8.72408 11.5696 8.76989 11.51C9.36999 10.7496 9.9701 9.98916 10.5702 9.22413C10.7443 9.00425 10.9184 8.77978 11.0283 8.51408C11.1566 8.21173 11.0191 7.92771 10.7076 7.81777C10.5702 7.77654 10.4236 7.75821 10.277 7.76738C9.46161 7.7628 8.64162 7.7628 7.8262 7.76738C7.71168 7.76738 7.59716 7.78112 7.48721 7.80861C7.23068 7.87274 7.07492 8.13386 7.13906 8.39497C7.18487 8.56905 7.3223 8.70648 7.49637 8.74771C7.60632 8.7752 7.72084 8.78894 7.83537 8.78436C8.33011 8.78894 8.82944 8.78436 9.32418 8.78894C9.37916 8.78894 9.44787 8.75229 9.4891 8.83475C9.44787 8.88972 9.40664 8.94469 9.36541 8.99508C8.65536 9.89296 7.94989 10.7954 7.23984 11.6933C7.06576 11.9178 6.97414 12.1651 7.10241 12.44C7.23068 12.7149 7.49179 12.7652 7.75749 12.7836C7.96821 12.7973 8.18352 12.7881 8.39883 12.7881C9.14095 12.7881 9.87848 12.7927 10.6206 12.7836C11.0146 12.779 11.2253 12.5408 11.1841 12.1743C11.152 11.8857 10.955 11.7345 10.5885 11.7299C9.94262 11.7254 9.2967 11.7299 8.60497 11.7299ZM13.9189 9.32033C13.3463 8.82101 12.7141 8.78894 12.0957 9.15542C11.3444 9.59519 11.0695 10.3144 11.1612 11.1482C11.2482 11.9269 11.5872 12.5637 12.4026 12.8248C12.9111 12.9897 13.3829 12.9302 13.7998 12.5912C13.9097 12.5041 13.9418 12.5224 14.0197 12.6187C14.1709 12.8111 14.432 12.8843 14.661 12.7973C14.8901 12.7286 15.0412 12.5179 15.0412 12.2797C15.0458 11.3635 15.0504 10.4473 15.0412 9.53106C15.0367 9.16458 14.6931 8.93095 14.3358 9.00425C14.1388 9.04547 14.0289 9.17832 13.9189 9.32033ZM17.0935 11.0199C17.0752 12.1651 18.0235 13.0309 19.2145 12.9118C20.3094 12.8019 21.0194 11.9819 20.9828 10.8229C20.9461 9.67765 20.0941 8.8943 18.9259 8.93095C17.8311 8.96302 17.0569 9.84257 17.0935 11.0199ZM16.6904 10.1083C16.6904 9.38905 16.695 8.67441 16.6904 7.9552C16.6904 7.58872 16.4568 7.35967 16.1086 7.36425C15.7696 7.36883 15.5452 7.59788 15.5406 7.95062C15.536 8.16592 15.5406 8.37665 15.5406 8.59196V12.2338C15.5406 12.5179 15.7147 12.7652 15.9437 12.8248C16.2598 12.9118 16.585 12.724 16.6675 12.4079C16.6812 12.353 16.6904 12.298 16.6858 12.2384C16.695 11.5284 16.6904 10.8183 16.6904 10.1083Z" fill="white"/>
<path d="M7.89048 21.9823C6.63988 21.9823 5.3847 22.0235 4.13409 21.9777C2.65445 21.9181 1.52295 20.6767 1.52295 19.197C1.52295 14.4191 1.53211 9.64111 1.52295 4.85857C1.52295 3.22316 2.80104 2.0825 4.27152 2.04127C5.81072 2.00004 7.35451 2.03211 8.89829 2.03211C8.92578 2.03211 8.96242 2.01837 8.97617 2.06418C8.967 2.14663 8.88455 2.1558 8.83416 2.18786C7.92713 2.71926 7.09797 3.35601 6.40167 4.14394C5.25185 5.44494 4.45476 6.93834 4.18448 8.67453C3.70807 11.7392 4.66549 14.3412 6.83228 16.5126C7.21708 16.902 7.26747 17.2043 6.96054 17.7265C6.58949 18.3541 6.02603 18.7802 5.42592 19.1695C5.36179 19.2062 5.29766 19.252 5.23352 19.2932C5.13732 19.3757 5.19688 19.4169 5.27933 19.4536C5.29766 19.4948 5.32056 19.5314 5.34805 19.5681C5.87486 20.0354 6.37418 20.5347 6.89183 21.0111C7.13462 21.2356 7.37741 21.4692 7.61104 21.7028C7.70724 21.7899 7.86757 21.8174 7.89048 21.9823Z" fill="#0180C7"/>
<path d="M7.89047 21.9822C7.86756 21.8219 7.70723 21.7944 7.61103 21.6982C7.3774 21.46 7.1346 21.2309 6.89181 21.0065C6.37416 20.53 5.87483 20.0307 5.34801 19.5635C5.32053 19.5268 5.29762 19.4902 5.2793 19.449C6.44745 19.678 7.58812 19.5222 8.71047 19.1787C9.09069 19.0642 9.47091 18.9496 9.85572 18.8534C10.1168 18.7847 10.3917 18.7985 10.6437 18.8901C13.548 19.8887 16.4157 19.7971 19.2376 18.5603C20.3874 18.0518 21.4365 17.3372 22.3252 16.4439C22.371 16.3981 22.4031 16.3294 22.4855 16.3248C22.5268 16.3889 22.5039 16.4576 22.5039 16.5263V19.2062C22.513 20.7362 21.2853 21.9822 19.7553 21.9959H19.7324C18.0832 22.0051 16.434 21.9959 14.7849 21.9959H8.16533C8.07371 21.9868 7.98209 21.9822 7.89047 21.9822Z" fill="#0180C7"/>
<path d="M8.60494 11.7301C9.29666 11.7301 9.94715 11.7255 10.5931 11.7301C10.955 11.7346 11.1519 11.8858 11.1886 12.1744C11.2298 12.5363 11.0191 12.7791 10.6251 12.7837C9.88302 12.7928 9.14549 12.7883 8.40338 12.7883C8.18808 12.7883 7.97735 12.7974 7.76205 12.7837C7.49636 12.7699 7.23524 12.715 7.10698 12.4401C6.97871 12.1653 7.07033 11.9179 7.2444 11.6934C7.94987 10.7956 8.65991 9.89311 9.36996 8.99524C9.41118 8.94027 9.45241 8.8853 9.49364 8.83491C9.44783 8.75703 9.3837 8.79368 9.32873 8.7891C8.83399 8.78452 8.33467 8.7891 7.83992 8.78452C7.7254 8.78452 7.61088 8.77078 7.50094 8.74787C7.23982 8.68832 7.07949 8.4272 7.13904 8.17067C7.18027 7.9966 7.3177 7.85459 7.49177 7.81336C7.60172 7.78587 7.71624 7.77213 7.83076 7.77213C8.64617 7.76755 9.46616 7.76755 10.2816 7.77213C10.4282 7.76755 10.5702 7.78587 10.7122 7.82252C11.0237 7.92788 11.1565 8.21648 11.0328 8.51882C10.9229 8.77994 10.7488 9.0044 10.5747 9.22887C9.97464 9.99389 9.37454 10.7543 8.77444 11.5102C8.72405 11.5697 8.67824 11.6293 8.60494 11.7301Z" fill="#0180C7"/>
<path d="M13.9193 9.32034C14.0292 9.17833 14.1438 9.04548 14.3316 9.00883C14.6935 8.93553 15.0325 9.16916 15.037 9.53564C15.0508 10.4518 15.0462 11.368 15.037 12.2842C15.037 12.5224 14.8813 12.7332 14.6568 12.8019C14.4278 12.8889 14.1667 12.8202 14.0155 12.6232C13.9376 12.527 13.9055 12.5087 13.7956 12.5957C13.3787 12.9347 12.9069 12.9943 12.3984 12.8294C11.583 12.5637 11.2486 11.9269 11.157 11.1527C11.0608 10.3144 11.3402 9.59978 12.0915 9.16C12.7145 8.78894 13.3467 8.82101 13.9193 9.32034ZM12.2976 10.9924C12.3068 11.194 12.3709 11.3864 12.49 11.5467C12.7374 11.8765 13.2092 11.9452 13.5436 11.6979C13.5986 11.6566 13.649 11.6062 13.6948 11.5467C13.9514 11.1985 13.9514 10.6259 13.6948 10.2778C13.5666 10.0991 13.365 9.99374 13.1497 9.98916C12.6458 9.95709 12.293 10.3465 12.2976 10.9924ZM17.0939 11.0199C17.0573 9.84257 17.8315 8.96302 18.9309 8.93095C20.099 8.89431 20.9511 9.67765 20.9878 10.8229C21.0244 11.9819 20.3143 12.8019 19.2195 12.9118C18.0239 13.0309 17.0756 12.1651 17.0939 11.0199ZM18.2437 10.9099C18.2346 11.139 18.3033 11.3635 18.4407 11.5513C18.6927 11.8811 19.1645 11.9452 19.4944 11.6887C19.5447 11.6521 19.586 11.6062 19.6272 11.5604C19.8929 11.2123 19.8929 10.6259 19.6318 10.2778C19.5035 10.1037 19.3019 9.99374 19.0866 9.98916C18.5919 9.96168 18.2437 10.3373 18.2437 10.9099ZM16.6908 10.1083C16.6908 10.8183 16.6954 11.5284 16.6908 12.2384C16.6954 12.5637 16.4388 12.834 16.1136 12.8431C16.0586 12.8431 15.9991 12.8385 15.9441 12.8248C15.715 12.7652 15.541 12.5224 15.541 12.2338V8.59196C15.541 8.37665 15.5364 8.16593 15.541 7.95062C15.5455 7.59789 15.77 7.36884 16.109 7.36884C16.4572 7.36426 16.6908 7.5933 16.6908 7.95978C16.6954 8.67442 16.6908 9.39363 16.6908 10.1083Z" fill="#0180C7"/>
<path d="M12.2974 10.9924C12.2928 10.3465 12.6456 9.95716 13.1449 9.98465C13.3602 9.99381 13.5618 10.0992 13.69 10.2778C13.9466 10.6214 13.9466 11.1986 13.69 11.5467C13.4427 11.8765 12.9708 11.9452 12.6364 11.6979C12.5814 11.6567 12.531 11.6063 12.4852 11.5467C12.3707 11.3864 12.3066 11.194 12.2974 10.9924ZM18.2435 10.91C18.2435 10.342 18.5917 9.96174 19.0864 9.98923C19.3017 9.99381 19.5033 10.1037 19.6316 10.2778C19.8927 10.626 19.8927 11.2169 19.627 11.5605C19.3705 11.8857 18.894 11.9407 18.5688 11.6841C18.5184 11.6475 18.4772 11.6017 18.4405 11.5513C18.3031 11.3635 18.2389 11.139 18.2435 10.91Z" fill="white"/>
</svg>
